<svg width="310" height="358" viewBox="0 0 310 358" fill="none" xmlns="http://www.w3.org/2000/svg">
<path fill-rule="evenodd" clip-rule="evenodd" d="M307.332 101.515V101.685C307.321 101.674 307.312 101.661 307.306 101.646C307.299 101.631 307.296 101.616 307.296 101.6C307.296 101.584 307.299 101.569 307.306 101.554C307.312 101.539 307.321 101.526 307.332 101.515ZM306.84 103.805C306.925 103.559 306.925 103.229 307.001 102.957C307 103.247 306.945 103.535 306.84 103.805ZM293.21 157.581C290.189 169.083 286.761 180.432 282.84 191.611C286.676 180.432 290.189 169.083 293.21 157.581C296.876 143.628 300.636 128.937 303.394 118.081C300.636 129.022 296.876 143.628 293.21 157.581ZM288.118 91.4216C288.033 92.3207 287.872 93.118 287.796 93.9662C287.983 93.1095 288.059 92.2189 288.144 91.3962L288.118 91.4216ZM257.448 250.281C257.694 249.874 257.855 249.382 258.101 248.89C257.855 249.382 257.686 249.874 257.448 250.281ZM153.301 355.262C149.788 352.167 135.988 342.37 118.6 326.95C135.955 342.327 149.669 352.124 153.301 355.262L153.462 355.424C153.343 355.305 153.343 355.262 153.301 355.262ZM2.95333 105.112C2.96744 104.943 2.9382 104.774 2.86843 104.62V103.229C2.79183 103.689 2.79183 104.159 2.86843 104.62C2.9382 104.774 2.96744 104.943 2.95333 105.112C2.97088 105.361 3.02521 105.607 3.11457 105.841C3.03819 105.595 3.03819 105.358 2.95333 105.112ZM306.271 97.0282C303.725 96.1291 298.268 94.4836 289.943 92.4649C290.456 88.2672 290.646 84.0365 290.512 79.8098C290.104 65.8569 285.776 53.7785 277.934 44.8046C270.093 35.8306 258.831 30.1138 245.524 28.4852C243.494 28.2327 241.451 28.0968 239.406 28.0781C234.749 28.0198 230.129 28.9086 225.827 30.6905C221.286 32.6848 217.286 35.732 214.158 39.5797C213.121 41.0103 212.421 42.6576 212.113 44.3974C211.459 47.0862 211.137 47.5782 210.076 47.7393H209.499C207.613 47.5862 205.766 47.1189 204.034 46.3568C202.595 45.7972 201.12 45.3325 199.621 44.9657C185.259 41.9194 170.622 40.3618 155.94 40.3176C138.642 40.321 121.424 42.6547 104.749 47.2559C104.351 47.3412 103.966 47.4781 103.604 47.663C103.443 47.7393 103.196 47.8242 103.035 47.909C102.929 47.6718 102.846 47.4246 102.789 47.171C101.762 42.6913 99.3652 38.6421 95.932 35.5846C92.4938 32.7319 88.4868 30.6443 84.1781 29.4606C80.3226 28.3146 76.3192 27.743 72.2969 27.7642C63.3076 27.8416 54.5167 30.4141 46.9052 35.1945C39.0768 39.9781 32.8289 46.9571 28.9391 55.2629C26.1599 61.2578 24.314 67.6422 23.4653 74.1947C22.7357 79.9394 22.7357 85.7532 23.4653 91.4979C15.8783 93.1943 10.4045 94.7635 6.97594 95.8238C5.00311 96.4195 3.309 97.7017 2.20055 99.4382C1.09209 101.175 0.642614 103.25 0.933522 105.29C1.42574 109.047 5.83025 126.427 14.0792 156.945C22.0712 186.514 33.0616 215.19 46.8797 242.528C54.7976 258.11 55.205 258.763 55.3662 259.009C87.4539 306.745 130.243 339.8 146.325 352.311C148.939 354.346 150.814 355.704 151.799 356.637C152.607 357.35 153.657 357.729 154.735 357.697C155.805 357.681 156.839 357.308 157.672 356.637C158.732 355.653 160.854 354.092 163.875 351.819C177.698 341.491 190.972 330.449 203.643 318.739C223.969 299.807 241.12 279.815 254.749 259.407C254.995 259 255.649 258.025 263.567 242.028C276.855 215.203 287.376 187.096 294.967 158.141C304.022 123.543 308.758 104.611 309.089 101.753C309.283 100.757 309.103 99.7239 308.583 98.8521C308.064 97.9804 307.24 97.331 306.271 97.0282Z" fill="#0C0C30"/>
<path fill-rule="evenodd" clip-rule="evenodd" d="M298.922 232.977C288.959 231.349 279.004 229.958 269.041 228.652C266.804 228.32 264.519 228.654 262.471 229.612C260.423 230.57 258.703 232.109 257.524 234.038C256.81 231.904 255.488 230.026 253.719 228.635C251.95 227.244 249.812 226.4 247.57 226.209C237.522 225.148 227.567 224.334 217.519 223.596C215.281 223.414 213.039 223.888 211.067 224.961C209.095 226.034 207.48 227.658 206.418 229.635C205.582 227.549 204.156 225.752 202.314 224.462C200.473 223.173 198.295 222.448 196.048 222.375C186.008 221.883 175.96 221.637 165.921 221.476C163.666 221.416 161.444 222.018 159.528 223.207C157.612 224.397 156.088 226.122 155.143 228.168C154.169 226.143 152.638 224.438 150.729 223.253C148.82 222.067 146.612 221.451 144.365 221.476C134.325 221.552 124.277 221.883 114.237 222.375C111.99 222.448 109.812 223.173 107.971 224.462C106.129 225.752 104.703 227.549 103.867 229.635C102.805 227.658 101.19 226.034 99.218 224.961C97.2462 223.888 95.004 223.414 92.7664 223.596C82.7183 224.334 72.6788 225.148 62.7155 226.209C60.4776 226.415 58.347 227.264 56.5808 228.653C54.8145 230.042 53.4879 231.912 52.7608 234.038C51.5704 232.129 49.8531 230.605 47.8158 229.649C45.7785 228.694 43.5083 228.347 41.2785 228.652C31.3153 229.958 21.3605 231.349 11.3973 232.977C5.03241 234.038 0.61944 239.831 1.68026 245.794C3.32099 255.101 4.95321 264.403 6.57697 273.699C7.10883 276.578 8.75136 279.132 11.1502 280.81C13.5491 282.489 16.5121 283.158 19.4001 282.673C28.7863 281.13 38.1809 279.823 47.6519 278.594C49.8145 278.323 51.8522 277.431 53.5181 276.027C55.184 274.622 56.4067 272.765 57.038 270.68C58.1084 272.562 59.7063 274.09 61.635 275.076C63.5637 276.062 65.7389 276.462 67.8923 276.227C77.3633 275.254 86.8344 274.44 96.3053 273.784C98.4718 273.628 100.548 272.852 102.285 271.55C104.023 270.248 105.35 268.473 106.107 266.439C107.086 268.371 108.598 269.981 110.465 271.08C112.331 272.179 114.474 272.72 116.639 272.639C126.11 272.232 135.581 271.901 145.052 271.791C147.22 271.748 149.331 271.087 151.135 269.884C152.94 268.682 154.363 266.989 155.236 265.005C156.109 266.99 157.531 268.683 159.336 269.886C161.14 271.088 163.251 271.749 165.42 271.791C174.891 271.867 184.362 272.198 193.833 272.639C196.003 272.748 198.157 272.219 200.029 271.117C201.901 270.015 203.408 268.388 204.365 266.439C205.122 268.473 206.449 270.248 208.187 271.55C209.924 272.852 212 273.628 214.167 273.784C223.638 274.435 233.109 275.249 242.58 276.227C244.733 276.454 246.906 276.05 248.835 275.065C250.763 274.08 252.364 272.557 253.442 270.68C254.077 272.764 255.302 274.621 256.969 276.025C258.636 277.429 260.674 278.321 262.837 278.594C272.223 279.823 281.694 281.138 291.08 282.673C293.968 283.158 296.931 282.489 299.33 280.81C301.729 279.132 303.372 276.578 303.903 273.699C305.533 264.398 307.165 255.096 308.8 245.794C309.7 239.754 305.287 233.97 298.922 232.977Z" fill="#0C0C30"/>
<path fill-rule="evenodd" clip-rule="evenodd" d="M260.062 216.412C272.461 189.569 282.128 161.548 288.916 132.771C294.712 107.961 301.001 81.0309 301.323 77.8501C301.381 77.3041 301.252 76.7546 300.955 76.2921C300.659 75.8296 300.214 75.4816 299.694 75.3055C296.995 74.4064 291.284 72.6167 282.466 70.4962C283.035 65.9763 283.197 61.4145 282.95 56.8657C281.643 30.5715 265.892 12.5557 240.823 9.53613C229.969 8.22991 220.167 10.3843 212.741 19.4092C210.534 22.098 211.841 27.4077 207.649 27.8148C204.305 28.1371 200.707 25.9403 197.202 25.2024C167.236 19.002 137.355 19.1632 107.711 27.4077C106.014 27.8996 104.368 29.2822 103.629 25.9403C101.669 17.365 95.3889 12.878 87.3861 10.4352C68.3592 4.80318 45.7426 15.2445 36.6789 34.1C31.0523 45.7627 29.6605 57.6799 31.1287 69.6735C23.2107 71.4717 17.4993 73.0663 13.7398 74.1604C12.2435 74.6209 10.9573 75.5933 10.1069 76.9071C9.2565 78.2208 8.89617 79.7919 9.08915 81.3447C9.57288 85.6705 15.1316 109.174 20.5969 131.694C27.7057 161.107 37.8299 189.71 50.809 217.048C55.0523 226.031 58.396 233.045 58.8118 233.613C94.8117 290.443 146.003 327.619 153.437 334.396C153.895 334.81 154.491 335.039 155.109 335.039C155.726 335.039 156.322 334.81 156.781 334.396C164.13 327.611 215.813 291.554 251.983 234.021C252.382 232.901 255.81 225.556 260.062 216.412Z" fill="#0C0C30"/>
<path fill-rule="evenodd" clip-rule="evenodd" d="M76.5996 0.00228402C56.5968 0.00228402 37.2475 12.1655 28.5912 30.1982C23.7189 40.3158 21.3387 51.4515 21.6492 62.6757C17.0749 63.8208 13.4851 64.8811 11.0325 65.6105C7.55737 66.6829 4.5645 68.9316 2.56818 71.9701C0.571864 75.0087 -0.303247 78.6473 0.0933353 82.2607C0.263066 83.8892 0.746808 88.1981 11.7708 133.755C19.0585 163.743 29.3716 192.915 42.5516 220.823C50.3083 237.057 50.6393 237.634 51.0381 238.363C82.7948 288.407 125.72 323.395 141.904 336.619C144.356 338.57 146.232 340.122 147.131 340.936C149.212 342.849 151.942 343.901 154.769 343.879C157.64 343.882 160.407 342.804 162.517 340.86C163.417 340.012 165.708 338.247 168.322 336.127C182.218 325.207 195.516 313.547 208.158 301.198C228.526 281.13 245.635 260.154 259.077 238.694C259.561 237.956 260.215 236.896 267.895 220.169C280.587 192.789 290.462 164.191 297.369 134.815C309.538 83.2361 309.785 80.0554 309.946 78.6728C310.196 76.1268 309.573 73.5713 308.177 71.4269C306.781 69.2825 304.696 67.6769 302.266 66.8743C300.314 66.2212 296.8 65.0762 291.657 63.6851C291.734 61.2423 291.734 58.8758 291.572 56.4245C290.019 25.6603 270.916 4.28569 241.689 0.689324C239.465 0.436069 237.23 0.300166 234.993 0.282185C222.908 0.282185 213.029 4.85399 205.604 13.7516C204.596 14.9593 203.819 16.3423 203.312 17.8314C201.854 17.2751 200.352 16.8382 198.823 16.5252C184.674 13.5418 170.257 12.01 155.796 11.9534C140.302 11.9327 124.864 13.8243 109.833 17.5855C106.812 11.5463 100.931 5.26112 89.6604 1.91921C85.4335 0.60316 81.0266 -0.0436375 76.5996 0.00228402ZM76.5996 8.8999C80.2209 8.88921 83.824 9.41224 87.2926 10.4521C95.2955 12.8186 101.584 17.3055 103.544 25.9572C103.952 27.6536 104.52 28.154 105.242 28.154C106.059 28.0125 106.854 27.7674 107.609 27.4246C123.318 23.0434 139.555 20.8456 155.864 20.8934C169.718 20.9223 183.533 22.3718 197.092 25.2193C200.359 25.8724 203.703 27.8317 206.809 27.8317H207.462C211.544 27.4246 210.322 22.1148 212.554 19.426C218.681 11.9195 226.438 9.14587 235.01 9.14587C236.885 9.14587 238.769 9.30703 240.645 9.46819C265.705 12.5726 281.465 30.5205 282.772 56.7977C283.021 61.3468 282.856 65.909 282.28 70.4283C291.097 72.5488 296.817 74.2621 299.507 75.2461C300.038 75.4064 300.495 75.7506 300.795 76.2169C301.095 76.6832 301.219 77.2412 301.145 77.7907C300.814 81.0562 294.611 107.978 288.729 132.712C281.959 161.493 272.292 189.517 259.875 216.353C255.632 225.488 252.237 232.833 251.55 233.817C215.465 291.342 163.697 327.407 156.348 334.184C155.899 334.588 155.322 334.82 154.718 334.838C154.113 334.815 153.535 334.585 153.08 334.184C145.74 327.399 94.5232 290.282 58.4554 233.401C58.048 232.833 54.7043 225.818 50.4525 216.836C37.4669 189.502 27.3452 160.898 20.2489 131.482C14.7751 108.962 9.21642 85.382 8.73269 81.1326C8.57791 79.5865 8.95402 78.0338 9.79921 76.7297C10.6444 75.4256 11.9083 74.4478 13.3833 73.9568C17.1428 72.8117 22.9392 71.1832 30.7807 69.4613C29.3126 57.4678 30.6958 45.6354 36.3309 33.8879C44.0197 18.6881 60.5176 8.8999 76.5996 8.8999Z" fill="white"/>
<path fill-rule="evenodd" clip-rule="evenodd" d="M269.694 208.829L235.807 204.588L226.99 223.248L259.977 228.473L269.694 208.829Z" fill="white"/>
<path fill-rule="evenodd" clip-rule="evenodd" d="M40.1838 207.846L74.724 204.173L83.5416 222.833L50.5544 228.058L40.1838 207.846Z" fill="white"/>
<path fill-rule="evenodd" clip-rule="evenodd" d="M136.116 156.029C131.024 157.657 125.83 156.19 120.687 156.877C118.727 157.123 118.404 155.571 117.997 154.188C112.384 134.951 109.066 115.118 108.11 95.1028C107.949 92.3291 109.179 91.2689 111.505 90.4546C131.176 83.669 151.341 82.8208 171.759 84.9074C177.471 85.4757 181.391 90.4546 181.468 96.5786C181.608 115.351 180.436 134.111 177.963 152.721C177.632 155.266 162.611 155.817 156.746 155.741C154.71 153.696 155.117 151.084 155.117 148.556C155.032 134.196 155.117 119.828 155.117 105.468C155.186 103.264 155.132 101.058 154.956 98.8603C154.302 93.2282 150.22 90.7006 144.831 92.4988C142.625 93.2282 142.54 95.0434 142.71 96.7398C143.932 110.04 143.363 123.5 144.908 136.809C145.485 141.372 145.4 145.944 146.053 150.431C146.3 152.305 146.138 154.265 144.585 155.741C141.81 155.902 138.95 155.978 136.099 156.063C134.308 154.434 134.308 152.144 133.977 149.939C131.609 133.297 129.572 116.571 129.572 99.5982C129.572 94.8653 128.266 93.7202 124.481 94.3733C121.935 94.7804 120.645 96.0697 120.891 98.8603C122.113 113.627 123.259 128.403 126.933 142.763C128.359 148.438 128.775 154.638 136.116 156.029Z" fill="#9C9CA8"/>
<path fill-rule="evenodd" clip-rule="evenodd" d="M103.621 83.0754C102.399 75.6537 102.891 68.0623 102.314 60.5557C102.153 58.0111 104.359 57.6973 105.988 56.9678C119.304 50.9287 133.425 48.9693 147.793 48.0702C156.285 47.5808 164.803 47.8249 173.253 48.7997C180.679 49.6479 185.253 54.5165 185.134 62.0231C185.058 67.1123 184.65 72.0573 184.565 77.1211C184.565 79.8099 183.59 80.217 181.171 79.8947C172.752 78.7696 164.272 78.1691 155.779 78.0965C154.226 72.8801 155.448 67.494 155.041 62.1843C154.633 55.7379 152.189 53.7023 145.977 54.5505C143.041 54.9576 141.411 56.2469 141.411 59.3682C141.411 63.4481 141.573 67.5279 141.326 71.6841C141.004 77.3161 133.57 81.0143 128.758 77.8844C127.12 76.8242 126.959 75.0345 126.798 73.3211C126.551 69.5636 126.797 65.7297 126.551 61.9722C126.39 59.8517 126.059 57.5701 123.284 57.816C120.509 58.062 117.343 58.062 116.919 62.057C116.495 66.0521 116.834 69.9707 116.749 73.8894C116.503 79.2755 115.527 80.5817 110.384 81.642C108.11 81.854 105.988 83.0754 103.621 83.0754Z" fill="#9C9CA8"/>
<path fill-rule="evenodd" clip-rule="evenodd" d="M144.611 155.782C142.981 137.181 141.912 118.462 140.936 99.8012C140.444 90.7425 142.812 88.4608 151.799 90.4711C154.082 90.9545 155.881 92.2607 156.119 94.7969C156.365 96.9937 156.611 99.199 156.696 101.404C156.769 119.499 156.795 137.614 156.772 155.748C152.69 155.706 148.693 155.782 144.611 155.782Z" fill="#FCFDFD"/>
<path fill-rule="evenodd" clip-rule="evenodd" d="M103.621 83.0755C104.928 79.5639 108.195 80.1407 110.809 79.8099C114.322 79.3264 115.544 77.7742 115.298 74.2627C114.976 69.8605 115.137 65.4499 115.213 61.0477C115.213 57.7822 118.608 55.6617 123.955 55.5768C127.629 55.492 128.444 57.7822 128.359 60.8781C128.283 65.2887 128.444 69.6909 128.283 74.1015C128.198 76.5443 129.131 77.3671 131.626 77.3671C139.544 77.4434 139.79 77.3671 139.875 69.4449C139.875 65.3651 140.037 61.2089 139.96 57.129C139.875 54.5845 140.69 53.2952 143.304 53.2104C144.365 53.2104 145.51 52.8796 146.571 52.8032C154.981 52.2349 156.857 53.8635 156.696 62.1843C156.611 67.4941 157.672 72.8801 155.957 78.0965C138.984 78.3425 122.155 79.8947 105.742 84.6277C104.766 84.8736 102.484 86.0103 103.621 83.0755Z" fill="#FCFDFC"/>
<path fill-rule="evenodd" clip-rule="evenodd" d="M145.349 35.4236C159.556 33.9477 173.592 35.4999 187.553 37.6204C190.905 38.1123 189.352 41.1319 189.598 43.0065C189.921 45.2118 188.291 45.1354 186.823 44.8895C172.778 42.3449 158.656 42.9301 144.526 42.9301C144.857 40.8096 146.648 40.9708 148.124 40.7248C149.601 40.4788 150.976 40.64 152.368 40.4025C153.428 40.2328 154.735 40.1565 154.574 38.6043C154.404 37.3829 153.267 37.4592 152.368 37.2133C150 36.8061 147.225 37.79 145.349 35.4236Z" fill="#9C9CA8"/>
<path fill-rule="evenodd" clip-rule="evenodd" d="M153.751 35.5848C150.989 35.2386 148.198 35.1846 145.425 35.4236C142.243 35.746 140.283 35.9071 136.769 36.3143C130.404 36.9674 127.298 37.1625 123.055 38.1124C122.912 38.1454 122.774 38.1997 122.648 38.2736C118.49 38.864 114.41 39.9049 110.478 41.378C109.83 42.6884 108.89 43.833 107.731 44.724C106.572 45.615 105.224 46.2288 103.79 46.5181C101.991 46.9252 100.192 47.6632 99.2162 49.4529C98.6391 50.5131 97.9092 51.8193 100.192 51.9042C107.795 48.9347 115.671 46.7215 123.708 45.2967C128.121 44.3976 131.143 44.5588 136.939 43.4985C139.79 43.1762 142.082 43.1762 144.526 43.0914C148.201 42.6842 150.653 42.5994 153.751 42.2432C156.203 41.9972 156.942 41.3441 156.942 38.9776C156.942 36.6111 156.203 35.8308 153.751 35.5848Z" fill="#F7F9FA"/>
<path fill-rule="evenodd" clip-rule="evenodd" d="M136.769 36.3394C137.669 38.2987 138.161 40.258 137.015 42.2768C135.462 42.4379 133.918 42.5227 132.365 42.6839C128.775 43.091 124.523 44.9655 123.954 38.7652C123.954 38.5192 123.106 38.4429 122.732 38.2733C127.296 36.9693 132.022 36.3182 136.769 36.3394Z" fill="#9C9CA8"/>
<path fill-rule="evenodd" clip-rule="evenodd" d="M110.478 41.293C111.131 45.9496 108.034 46.925 104.444 47.8241C99.8697 48.9692 99.9461 49.1303 100.116 51.7428C99.055 52.803 98.3167 52.2347 98.4779 51.0897C98.724 49.0455 97.8244 46.5179 100.523 45.3728C103.79 43.9733 107.134 42.684 110.478 41.293Z" fill="#9C9CA8"/>
<path fill-rule="evenodd" clip-rule="evenodd" d="M198.28 88.9281C198.034 88.8432 197.787 88.8432 197.626 88.7669C197.387 88.6969 197.137 88.6683 196.888 88.6821C196.343 88.67 195.815 88.8743 195.42 89.2504C195.172 89.5873 194.995 89.9701 194.897 90.3765C194.8 90.7828 194.784 91.2044 194.851 91.6168V92.1088C194.198 114.306 191.176 134.137 185.38 152.738C185.295 152.899 185.295 153.069 185.21 153.145C185.023 153.523 184.912 153.934 184.885 154.355C184.857 154.775 184.913 155.197 185.049 155.597C185.19 155.863 185.388 156.096 185.628 156.279C185.869 156.462 186.146 156.591 186.441 156.657C187.872 157.087 189.352 157.335 190.845 157.395C192.543 157.395 193.705 156.903 194.24 155.919C194.71 155.033 195.094 154.104 195.386 153.145C200.478 136.826 203.635 119.039 205.179 98.9623V97.0877C205.234 95.7275 205.209 94.3651 205.103 93.0079C204.865 90.1749 200.537 89.3606 198.28 88.9281Z" fill="#EE4E2B"/>
<path fill-rule="evenodd" clip-rule="evenodd" d="M203.889 54.6012C203.397 54.4316 202.99 54.2704 202.498 54.1093C202.134 53.9584 201.746 53.875 201.352 53.8633C200.13 53.8633 198.908 54.7624 198.806 57.2052C198.721 61.4462 198.806 65.2885 198.806 68.9612C198.806 72.6339 198.891 76.2218 198.806 80.3017C198.806 83.9744 203.219 84.8735 205.595 85.3909C206.003 85.4672 206.325 85.552 206.656 85.6284C207.029 85.7202 207.41 85.777 207.793 85.798C210 85.798 210.085 83.5927 210.085 82.5324V81.8793C210.331 78.7749 210.568 75.679 210.738 72.9054L210.984 69.9621C210.984 68.9019 210.984 67.9264 210.899 67.0273C210.741 65.4496 210.796 63.8578 211.061 62.2944C211.858 57.3748 207.072 55.6615 203.889 54.6012Z" fill="#EE4E2B"/>
<path fill-rule="evenodd" clip-rule="evenodd" d="M209.847 50.9282C208.947 50.5126 207.971 50.08 207.148 49.622C207.997 50.1054 208.947 50.5126 209.847 50.9282ZM205.069 41.4283C205.381 41.6213 205.71 41.7832 206.053 41.9118C205.71 41.7832 205.381 41.6213 205.069 41.4283ZM203.762 47.4675C202.294 46.0765 202.913 43.956 203.194 42.0815C202.947 43.8712 202.294 46.0765 203.762 47.4675C204.008 47.705 204.416 47.951 204.823 48.3157C204.373 47.9849 203.966 47.739 203.72 47.5015L203.762 47.4675ZM214.871 47.705C214.625 44.6854 210.543 42.9721 207.683 41.6658C206.783 41.2587 206.054 40.9364 205.561 40.6904C205.168 40.4447 204.718 40.3045 204.254 40.2833C203.786 40.2792 203.333 40.4514 202.985 40.7657C202.638 41.0799 202.421 41.5133 202.379 41.9797C202.362 42.2323 202.308 42.481 202.218 42.7176C201.887 44.414 201.564 46.6278 203.194 48.0952C205.144 49.5738 207.285 50.7834 209.558 51.6916C210.031 51.8753 210.529 51.984 211.035 52.0139C211.564 52.0156 212.087 51.9099 212.574 51.7033C213.061 51.4967 213.5 51.1934 213.866 50.8119C214.232 50.4304 214.516 49.9786 214.702 49.4839C214.888 48.9892 214.972 48.4619 214.947 47.934L214.871 47.705Z" fill="#EE4E2B"/>
<path fill-rule="evenodd" clip-rule="evenodd" d="M264.713 37.1372C264.466 36.8064 264.22 36.3993 263.974 36.0769C264.22 36.3993 264.466 36.8064 264.713 37.1372C265.327 37.9755 265.894 38.8477 266.41 39.7496C265.858 38.8845 265.324 37.9515 264.713 37.1372ZM262.591 91.3202C262.837 90.7434 263.083 90.0988 263.321 89.522C263.083 90.0988 262.837 90.6671 262.591 91.3202ZM255.326 106.664C254.266 108.7 253.12 110.659 251.932 112.601C253.154 110.642 254.3 108.683 255.326 106.664C255.326 106.579 255.403 106.494 255.403 106.418C255.403 106.579 255.403 106.664 255.326 106.664ZM244.294 123.874C245.601 122.084 246.984 120.21 248.215 118.327C246.993 120.21 245.686 122.008 244.302 123.874H244.294ZM217.986 155.944C219.131 154.477 220.268 153.095 221.499 151.703C220.294 153.095 219.157 154.477 218.011 155.936L217.986 155.944ZM215.44 157.827C215.27 157.827 215.109 157.904 214.863 157.904H214.786C215.032 157.904 215.27 157.827 215.44 157.827ZM213.148 157.497C213.479 157.582 213.725 157.658 213.997 157.743C213.721 157.687 213.451 157.604 213.191 157.497H213.148ZM257.278 35.1779C258.219 36.4297 259.04 37.7673 259.731 39.1729C259.08 37.7642 258.286 36.4256 257.363 35.1779H257.278ZM248.35 22.7687C248.104 22.6924 247.858 22.5312 247.612 22.4464C247.858 22.5312 248.104 22.6924 248.35 22.7687C249.08 23.0995 249.819 23.4218 250.557 23.8374C249.768 23.4218 249.114 23.0995 248.35 22.7687ZM243.259 20.5719C244.045 20.7893 244.811 21.0731 245.55 21.4201C244.831 21.0762 244.084 20.7925 243.318 20.5719H243.259ZM265.391 36.5604C264.814 35.7122 257.796 24.728 247.264 21.225C244.718 20.3768 242.69 19.2656 240.568 19.2656C239.991 19.2656 235.587 19.9187 235.587 19.9187L235.341 21.6151L238.362 22.8366L242.121 24.3888L245.219 25.695C249.386 27.6543 252.976 30.8351 256.565 35.568C258.365 37.9754 259.722 40.6838 260.571 43.5665C262.546 49.9209 263.185 56.6149 262.447 63.2278C260.656 77.9186 255.428 92.2023 245.957 108.36C240.237 118.064 233.227 127.123 226.362 135.859C222.848 140.422 219.174 145.079 215.745 149.812C215.439 150.284 215.083 150.722 214.684 151.118C213.377 152.815 211.994 154.511 211.341 156.827L211.094 157.675L210.848 158.523L211.587 158.845L212.317 159.176C213.098 159.483 213.929 159.647 214.769 159.66C215.691 159.615 216.589 159.347 217.384 158.878C218.179 158.41 218.849 157.755 219.335 156.971C220.812 155.096 222.356 153.213 223.909 151.424L224.155 151.178C226.031 148.972 227.915 146.767 229.706 144.646C239.507 133.145 249.632 121.228 256.862 107.521C266.834 88.9282 271.264 73.8557 271.264 58.5966C271.324 51.6584 270.594 43.5835 265.451 36.5604H265.391Z" fill="#EE4E2B"/>
<path fill-rule="evenodd" clip-rule="evenodd" d="M227.805 67.5705C235.561 65.942 240.059 62.3456 241.773 56.1453C243.488 49.945 241.527 44.72 235.892 40.4027L234.424 39.2577C232.895 38.0731 231.721 36.4917 231.03 34.6859C230.959 34.527 230.902 34.3624 230.86 34.1939C230.614 31.4203 230.537 30.0377 232.005 28.8078L234.051 27.1114L236.087 25.415L233.397 25.4999L230.699 25.5847C225.878 25.7458 224.334 28.3583 223.841 30.5551C223.103 33.7444 225.31 35.4577 227.024 36.7639L228.008 37.4934L229.638 38.7996L230.206 39.2916C230.889 39.8632 231.494 40.522 232.005 41.2509L232.659 42.0991C233.005 42.528 233.307 42.9913 233.558 43.4817C237.641 51.4802 235.519 57.6042 226.294 64.3728L222.899 66.8241L219.556 69.2754L223.638 68.4272L227.805 67.5705Z" fill="#EE4E2B"/>
<path fill-rule="evenodd" clip-rule="evenodd" d="M100.192 155.46L99.8697 155.782L100.192 155.46C100.031 155.29 99.9461 155.214 99.9461 155.129C98.4779 152.924 97.0946 151.049 95.7876 149.336C93.1738 145.943 90.3987 142.398 87.9461 139.302C78.8824 127.715 69.4963 115.798 62.5543 102.498C55.7651 89.6058 48.1866 72.3025 49.6548 52.8787C50.7156 39.0107 57.4964 29.2988 69.8188 23.9976L81.0889 20.1637L76.7608 19.7481C73.171 19.4258 71.6689 19.9177 68.5968 20.978L67.6972 21.3003C50.7241 27.0935 41.3889 42.2763 42.7976 61.7764C43.9433 78.4265 49.4935 94.6611 60.2715 112.668C67.1286 124.178 75.8612 134.382 84.2714 144.255C87.9461 148.496 91.7056 152.898 95.2106 157.394C95.6498 158.013 96.2321 158.516 96.9079 158.861C97.4222 159.102 97.9785 159.24 98.5458 159.268C98.9391 159.278 99.3292 159.194 99.6835 159.023C100.038 158.852 100.346 158.599 100.583 158.284C100.896 157.855 101.031 157.32 100.958 156.793C100.885 156.267 100.611 155.789 100.192 155.46Z" fill="#FCFDFD"/>
<path fill-rule="evenodd" clip-rule="evenodd" d="M79.2134 40.2314L76.5147 42.5979C71.9489 46.6014 70.6419 51.3344 72.5175 56.7968C74.5542 62.5136 80.1554 66.3475 87.1314 66.8395L91.2134 67.077L87.7 65.1261C77.5755 59.4092 74.5542 52.8018 77.9828 43.6582L79.2134 40.2314Z" fill="#FCFDFD"/>
<path fill-rule="evenodd" clip-rule="evenodd" d="M81.3351 27.2637C83.2107 30.1136 84.1103 32.4801 82.8882 35.4233L81.5812 38.6041L84.2715 36.4836C87.2927 34.0323 88.5148 32.3189 88.2771 30.6056C88.0395 28.8922 86.2319 27.4248 82.396 25.8726L79.6208 24.7275L81.3351 27.2637Z" fill="#FCFDFD"/>
<path fill-rule="evenodd" clip-rule="evenodd" d="M136.116 156.028C128.529 155.46 128.605 155.375 126.407 147.546C121.748 131.227 120.467 114.466 119.134 97.689C118.651 91.9806 122.97 92.956 125.991 92.3877C128.537 91.8958 131.38 92.0569 131.304 95.7805C130.897 115.857 133.918 135.646 136.201 155.511C136.201 155.68 136.116 155.842 136.116 156.003V156.028Z" fill="#FCFDFD"/>
<path fill-rule="evenodd" clip-rule="evenodd" d="M129.182 298.263C129.066 297.283 129.12 296.29 129.343 295.329C129.57 294.446 129.897 293.592 130.319 292.784C130.825 291.851 131.392 290.953 132.017 290.095C132.755 289.035 133.408 288.136 133.816 287.398C134.283 286.602 134.64 285.746 134.877 284.853C135.154 283.872 135.266 282.852 135.208 281.834C135.191 281.318 135.048 280.814 134.792 280.366C134.679 280.197 134.516 280.067 134.326 279.994C134.136 279.922 133.928 279.909 133.731 279.959C132.882 280.036 132.509 280.807 132.67 282.165C132.755 283.14 132.84 284.039 132.916 285.015L127.689 285.506C127.612 285.015 127.527 284.531 127.451 284.115C127.263 282.652 127.288 281.169 127.527 279.713C127.764 278.598 128.405 277.61 129.326 276.94C130.515 276.159 131.902 275.735 133.324 275.718C135.13 275.471 136.964 275.906 138.467 276.94C139.117 277.504 139.641 278.199 140.003 278.98C140.366 279.76 140.559 280.608 140.571 281.469C140.637 282.65 140.526 283.833 140.24 284.981C139.951 285.953 139.541 286.885 139.018 287.754C138.416 288.741 137.761 289.695 137.058 290.613C136.489 291.461 135.997 292.08 135.59 292.733C135.182 293.311 134.853 293.942 134.614 294.608L141.14 294.116C141.225 295.583 141.301 297.059 141.386 298.442C137.304 298.687 133.307 299.01 129.225 299.502C129.25 299.089 129.236 298.674 129.182 298.263Z" fill="white"/>
<path fill-rule="evenodd" clip-rule="evenodd" d="M149.431 293.531C149.656 293.192 149.769 292.792 149.754 292.386C149.669 288.552 149.593 284.794 149.508 280.96C149.545 280.423 149.433 279.886 149.185 279.408C149.015 279.086 148.693 278.925 148.124 278.925C147.92 278.896 147.713 278.937 147.534 279.04C147.356 279.143 147.217 279.302 147.14 279.493C146.946 279.986 146.89 280.523 146.979 281.045C147.14 284.879 147.225 288.637 147.386 292.47C147.405 292.87 147.519 293.259 147.717 293.607C147.804 293.76 147.937 293.883 148.096 293.957C148.256 294.031 148.435 294.054 148.608 294.023C148.775 294.015 148.938 293.966 149.082 293.881C149.226 293.795 149.346 293.674 149.431 293.531ZM144.042 296.796C143.432 296.186 142.951 295.459 142.627 294.659C142.304 293.859 142.144 293.002 142.158 292.14C141.997 288.637 141.751 285.21 141.59 281.698C141.505 279.493 141.912 277.78 142.982 276.609C144.051 275.439 145.757 274.735 147.955 274.65C150.153 274.565 151.96 275.142 153.097 276.287C153.702 276.959 154.164 277.747 154.456 278.603C154.748 279.458 154.863 280.364 154.795 281.266V291.733C154.847 292.59 154.729 293.45 154.448 294.262C154.167 295.075 153.728 295.823 153.157 296.465C152.096 297.611 150.543 298.102 148.583 298.162C147.772 298.271 146.948 298.206 146.164 297.971C145.381 297.735 144.658 297.335 144.042 296.796Z" fill="white"/>
<path fill-rule="evenodd" clip-rule="evenodd" d="M156.288 296.872C156.278 295.873 156.442 294.88 156.772 293.937C157.113 293.073 157.552 292.251 158.079 291.486C158.571 290.756 159.309 289.942 160.124 288.941C160.939 287.94 161.677 287.143 162.246 286.397C162.791 285.658 163.257 284.865 163.638 284.03C164.026 283.098 164.244 282.104 164.283 281.095C164.311 280.592 164.229 280.089 164.045 279.62C163.935 279.439 163.778 279.291 163.592 279.191C163.405 279.091 163.196 279.043 162.984 279.051C162.135 279.051 161.677 279.704 161.677 281.095C161.677 282.071 161.592 282.97 161.592 283.945C159.895 283.869 158.079 283.869 156.365 283.869C156.38 283.404 156.354 282.939 156.288 282.478C156.232 281.014 156.424 279.552 156.857 278.152C157.026 277.61 157.3 277.106 157.664 276.669C158.028 276.232 158.475 275.872 158.978 275.608C160.272 274.974 161.707 274.681 163.145 274.759C165.267 274.836 166.981 275.413 168.042 276.549C168.629 277.176 169.066 277.927 169.32 278.747C169.575 279.567 169.64 280.434 169.51 281.282C169.458 282.446 169.211 283.592 168.78 284.675C168.413 285.627 167.888 286.51 167.227 287.287C166.521 288.207 165.756 289.08 164.936 289.9C164.283 290.638 163.714 291.291 163.307 291.774L162.085 293.471L168.611 293.717L168.373 298.043C164.283 297.797 160.201 297.72 156.203 297.72C156.266 297.442 156.294 297.157 156.288 296.872Z" fill="white"/>
<path fill-rule="evenodd" clip-rule="evenodd" d="M170.288 296.872C170.278 295.873 170.442 294.88 170.772 293.937C171.113 293.073 171.552 292.251 172.079 291.486C172.571 290.756 173.309 289.942 174.124 288.941C174.939 287.94 175.677 287.143 176.246 286.397C176.791 285.658 177.257 284.865 177.638 284.03C178.026 283.098 178.244 282.104 178.283 281.095C178.311 280.592 178.229 280.089 178.045 279.62C177.935 279.439 177.778 279.291 177.592 279.191C177.405 279.091 177.196 279.043 176.984 279.051C176.135 279.051 175.677 279.704 175.677 281.095C175.677 282.071 175.592 282.97 175.592 283.945C173.895 283.869 172.079 283.869 170.365 283.869C170.38 283.404 170.354 282.939 170.288 282.478C170.232 281.014 170.424 279.552 170.857 278.152C171.026 277.61 171.3 277.106 171.664 276.669C172.028 276.232 172.475 275.872 172.978 275.608C174.272 274.974 175.707 274.681 177.145 274.759C179.267 274.836 180.981 275.413 182.042 276.549C182.629 277.176 183.066 277.927 183.32 278.747C183.575 279.567 183.64 280.434 183.51 281.282C183.458 282.446 183.211 283.592 182.78 284.675C182.413 285.627 181.888 286.51 181.227 287.287C180.521 288.207 179.756 289.08 178.936 289.9C178.283 290.638 177.714 291.291 177.307 291.774L176.085 293.471L182.611 293.717L182.373 298.043C178.283 297.797 174.201 297.72 170.203 297.72C170.266 297.442 170.294 297.157 170.288 296.872Z" fill="white"/>
<path fill-rule="evenodd" clip-rule="evenodd" d="M222.416 148.683C222.718 148.525 223.002 148.334 223.264 148.115C222.891 148.361 222.662 148.522 222.416 148.683ZM206.58 148.683C206.676 148.584 206.788 148.501 206.911 148.437C206.817 148.54 206.705 148.623 206.58 148.683ZM204.619 149.421C204.95 149.336 205.273 149.251 205.519 149.175C205.24 149.321 204.933 149.405 204.619 149.421ZM197.762 140.201L197.847 140.116C197.762 140.116 197.762 140.116 197.762 140.201ZM191.558 149.667L191.397 149.828C191.491 149.828 191.491 149.743 191.558 149.667ZM174.186 146.724C174.11 146.809 174.11 146.97 174.025 147.055C174.025 146.97 174.11 146.885 174.186 146.724ZM174.11 150.481C174.025 150.558 173.94 150.642 173.864 150.642C174 150.642 174.085 150.558 174.17 150.481H174.11ZM169.536 137.996H169.858C169.841 137.911 169.757 137.996 169.595 137.996H169.536ZM165.7 143.085C165.783 142.995 165.839 142.883 165.861 142.763C165.802 142.848 165.767 142.948 165.759 143.051L165.7 143.085ZM153.369 137.945C153.53 137.945 153.776 137.869 153.938 137.869C153.771 137.908 153.599 137.923 153.428 137.911L153.369 137.945ZM230.418 145.138V144.976C230.441 141.786 229.209 138.715 226.986 136.425C224.763 134.135 221.728 132.81 218.537 132.737C215.637 132.728 212.84 133.805 210.696 135.757C208.529 133.784 205.709 132.681 202.778 132.661C199.841 132.653 197.011 133.76 194.86 135.757C192.624 133.726 189.716 132.593 186.696 132.576C185.705 132.565 184.716 132.674 183.751 132.898C183.097 132.67 182.407 132.561 181.714 132.576H180.076C179.354 132.563 178.636 132.693 177.964 132.96C177.293 133.226 176.681 133.623 176.164 134.128C174.344 133.123 172.302 132.589 170.223 132.576C167.255 132.581 164.388 133.653 162.144 135.595C160.287 133.921 157.938 132.892 155.448 132.661V129.802C155.464 129.047 155.327 128.296 155.045 127.595C154.764 126.894 154.344 126.257 153.81 125.722C152.745 124.672 151.309 124.084 149.813 124.085H148.116C146.732 124.058 145.389 124.555 144.356 125.476C144.28 125.392 144.119 125.392 144.034 125.315C141.98 124.504 139.792 124.087 137.584 124.085H137.177C135.387 124.102 133.621 124.504 132.001 125.266C130.381 126.027 128.945 127.129 127.791 128.496L127.952 125.638V125.315C127.932 123.72 127.289 122.195 126.16 121.067C125.031 119.938 123.506 119.296 121.909 119.276H117.505C115.46 113.339 110.155 109.098 103.926 109.098C97.7227 109.098 92.495 113.262 90.3479 119.217H85.7736C84.195 119.263 82.6953 119.917 81.5881 121.042C80.4809 122.168 79.8521 123.678 79.833 125.256V125.578L80.9702 152.839V153.331C81.132 155.504 82.0851 157.542 83.649 159.06C85.2128 160.577 87.2791 161.47 89.4568 161.567H89.652L117.411 161.652H117.742C122.308 161.567 176.69 164.197 179.872 164.197H181.502C184.769 164.197 222.823 160.448 222.823 160.448L222.738 156.69C223.705 156.458 224.638 156.102 225.513 155.63C226.14 155.293 226.742 154.91 227.312 154.485C227.521 154.345 227.712 154.18 227.881 153.993L228.212 153.671C228.988 152.917 229.537 151.962 229.797 150.912C230.056 149.862 230.016 148.761 229.68 147.733C230.195 146.981 230.454 146.083 230.418 145.172V145.138Z" fill="#0C0C30"/>
<path fill-rule="evenodd" clip-rule="evenodd" d="M253.196 164.104C242.503 163.047 231.81 162.15 221.117 161.415C218.75 161.272 216.393 161.821 214.333 162.994C212.273 164.167 210.599 165.915 209.516 168.023C207.394 163.536 203.151 160.27 198.169 160.109C187.476 159.617 176.775 159.371 166.082 159.21C163.684 159.212 161.335 159.896 159.311 161.182C157.287 162.467 155.671 164.302 154.65 166.471C153.635 164.298 152.02 162.46 149.994 161.174C147.969 159.887 145.618 159.206 143.219 159.21C132.611 159.371 121.909 159.702 111.301 160.194C108.879 160.361 106.549 161.186 104.563 162.581C102.576 163.976 101.009 165.887 100.031 168.108C98.9774 165.996 97.3232 164.242 95.2759 163.066C93.2285 161.891 90.8792 161.346 88.5231 161.5C77.9065 162.23 67.3747 163.129 56.758 164.274C49.6547 165.003 44.1045 171.857 44.3507 179.609C44.6731 191.484 45.0805 203.359 45.4879 215.234C45.8188 223.47 51.7 229.594 58.6335 228.805C69.0041 227.66 79.3746 226.761 89.7452 226.031C94.5571 225.7 98.724 222.189 100.778 217.295C102.976 221.951 107.304 224.928 112.124 224.725C122.571 224.233 133.027 223.877 143.474 223.826C148.294 223.741 152.537 220.475 154.659 215.742C156.865 220.475 161.032 223.826 165.929 223.826C176.376 223.987 186.908 224.318 197.329 224.801C202.226 225.047 206.469 222.028 208.761 217.38C210.797 222.274 214.964 225.785 219.861 226.192C230.393 226.922 240.848 227.889 251.38 229.051C258.398 229.78 264.356 223.665 264.687 215.42C265.094 203.427 265.536 191.509 265.833 179.516C266.019 171.78 260.384 164.842 253.196 164.104Z" fill="white"/>
<path fill-rule="evenodd" clip-rule="evenodd" d="M298.922 226.615C288.959 224.978 279.004 223.596 269.041 222.289C266.805 221.976 264.527 222.318 262.483 223.274C260.438 224.23 258.716 225.759 257.524 227.676C256.799 225.548 255.473 223.677 253.706 222.286C251.94 220.895 249.809 220.045 247.57 219.838C237.522 218.778 227.567 217.964 217.519 217.234C215.282 217.05 213.04 217.522 211.068 218.594C209.096 219.665 207.48 221.289 206.418 223.265C205.567 221.189 204.137 219.401 202.299 218.114C200.46 216.827 198.291 216.095 196.048 216.004C186.008 215.512 175.96 215.275 165.921 215.105C163.667 215.049 161.446 215.652 159.531 216.841C157.616 218.03 156.09 219.753 155.143 221.797C154.167 219.774 152.636 218.07 150.727 216.885C148.819 215.7 146.612 215.082 144.365 215.105C134.325 215.19 124.277 215.512 114.237 216.004C111.99 216.078 109.813 216.804 107.972 218.093C106.13 219.382 104.704 221.179 103.867 223.265C102.805 221.289 101.189 219.665 99.2172 218.594C97.2452 217.522 95.0032 217.05 92.7664 217.234C82.7183 217.964 72.6788 218.778 62.7155 219.838C60.4766 220.045 58.3453 220.895 56.579 222.286C54.8126 223.677 53.4866 225.548 52.7608 227.676C51.5719 225.765 49.8549 224.24 47.8172 223.284C45.7795 222.328 43.5084 221.983 41.2785 222.289C31.3153 223.596 21.3605 224.978 11.3973 226.615C5.03241 227.676 0.61944 233.401 1.68026 239.423C3.32099 248.725 4.95321 258.03 6.57697 267.337C7.11086 270.215 8.75387 272.767 11.1522 274.446C13.5506 276.124 16.5124 276.794 19.4001 276.311C28.7863 274.759 38.1809 273.453 47.6519 272.231C49.8141 271.96 51.8513 271.068 53.517 269.663C55.1828 268.259 56.4057 266.402 57.038 264.318C58.1092 266.199 59.7073 267.727 61.6358 268.712C63.5643 269.698 65.739 270.099 67.8923 269.865C77.3633 268.881 86.8344 268.064 96.3053 267.414C98.4727 267.26 100.55 266.486 102.288 265.183C104.027 263.88 105.353 262.105 106.107 260.068C107.084 262.002 108.595 263.615 110.462 264.716C112.329 265.817 114.473 266.358 116.639 266.277C126.11 265.861 135.581 265.539 145.052 265.429C147.221 265.388 149.332 264.727 151.137 263.525C152.942 262.322 154.364 260.628 155.236 258.643C156.106 260.63 157.528 262.325 159.333 263.527C161.138 264.73 163.251 265.39 165.42 265.429C174.891 265.514 184.362 265.836 193.833 266.277C196.004 266.385 198.158 265.855 200.03 264.751C201.902 263.648 203.409 262.019 204.365 260.068C205.119 262.105 206.445 263.88 208.184 265.183C209.922 266.486 211.999 267.26 214.167 267.414C223.638 268.064 233.109 268.881 242.58 269.865C244.733 270.092 246.906 269.688 248.835 268.703C250.763 267.718 252.364 266.195 253.442 264.318C254.077 266.402 255.302 268.259 256.969 269.663C258.636 271.067 260.674 271.959 262.837 272.231C272.223 273.453 281.694 274.776 291.08 276.311C293.968 276.794 296.93 276.124 299.328 274.446C301.727 272.767 303.37 270.215 303.903 267.337C305.533 258.035 307.165 248.731 308.8 239.423C309.7 233.384 305.287 227.676 298.922 226.615Z" fill="white"/>
<path fill-rule="evenodd" clip-rule="evenodd" d="M253.366 163.781C242.749 162.721 232.056 161.737 221.44 161.025C219.18 160.819 216.907 161.207 214.845 162.152C212.783 163.097 211.004 164.565 209.686 166.411C208.574 164.428 206.965 162.769 205.017 161.595C203.07 160.422 200.85 159.775 198.577 159.718C187.884 159.226 177.267 158.87 166.574 158.819C164.304 158.723 162.049 159.231 160.04 160.292C158.032 161.353 156.341 162.929 155.143 164.858C153.923 162.949 152.229 161.389 150.225 160.33C148.221 159.272 145.977 158.751 143.711 158.819C133.018 158.98 122.401 159.226 111.708 159.718C109.435 159.775 107.216 160.422 105.268 161.595C103.32 162.769 101.712 164.428 100.6 166.411C99.2749 164.572 97.4951 163.109 95.4347 162.165C93.3743 161.221 91.1038 160.828 88.8457 161.025C78.229 161.754 67.5359 162.653 56.9193 163.798C49.816 164.536 44.5968 170.329 45.3267 176.606L48.594 204.766C49.3323 211.043 55.4511 215.538 62.1725 214.8C72.212 213.74 82.3365 212.926 92.3845 212.188C94.5651 212.059 96.6749 211.366 98.5064 210.177C100.338 208.987 101.829 207.342 102.832 205.402C104.062 207.209 105.738 208.669 107.697 209.641C109.656 210.612 111.833 211.063 114.017 210.95C124.141 210.458 134.181 210.212 144.305 210.05C146.497 210.039 148.648 209.462 150.551 208.376C152.454 207.29 154.045 205.731 155.168 203.85C156.298 205.725 157.89 207.279 159.792 208.364C161.693 209.449 163.841 210.03 166.031 210.05C176.147 210.135 186.195 210.458 196.319 210.95C198.505 211.075 200.686 210.629 202.647 209.657C204.608 208.684 206.282 207.218 207.505 205.402C208.508 207.342 209.998 208.987 211.83 210.177C213.661 211.366 215.771 212.059 217.952 212.188C228.076 212.926 238.124 213.74 248.164 214.8C254.86 215.453 260.978 211.043 261.742 204.766C262.803 195.377 263.949 185.996 265.009 176.606C265.688 170.355 260.469 164.519 253.366 163.781Z" fill="#0F0F3D"/>
<path fill-rule="evenodd" clip-rule="evenodd" d="M299.66 221.883C289.612 220.246 279.657 218.864 269.609 217.558C267.373 217.225 265.089 217.558 263.042 218.516C260.996 219.474 259.277 221.014 258.101 222.944C257.367 220.804 256.026 218.924 254.242 217.533C252.458 216.141 250.308 215.298 248.053 215.106C238.014 214.046 227.889 213.232 217.85 212.502C215.601 212.316 213.347 212.787 211.361 213.858C209.375 214.929 207.744 216.553 206.664 218.533C205.803 216.447 204.359 214.653 202.505 213.365C200.651 212.078 198.465 211.351 196.209 211.272C186.084 210.78 176.045 210.543 165.92 210.373C163.653 210.306 161.416 210.903 159.486 212.093C157.555 213.282 156.016 215.011 155.058 217.066C154.077 215.03 152.534 213.318 150.61 212.132C148.686 210.946 146.463 210.336 144.203 210.373C134.079 210.458 124.039 210.78 113.915 211.272C111.654 211.333 109.46 212.053 107.603 213.343C105.745 214.632 104.305 216.436 103.459 218.533C102.38 216.553 100.748 214.929 98.7626 213.858C96.7769 212.787 94.5228 212.316 92.2742 212.502C82.2346 213.232 72.1101 214.046 62.0621 215.106C59.8126 215.312 57.67 216.161 55.8898 217.55C54.1096 218.94 52.7671 220.812 52.0225 222.944C50.8325 221.028 49.1115 219.5 47.0686 218.543C45.0257 217.587 42.7487 217.245 40.5147 217.558C30.4667 218.864 20.4271 220.246 10.4639 221.883C4.01412 222.944 -0.314024 228.737 0.746794 234.691C2.38187 243.993 4.01697 253.298 5.65204 262.605C6.20365 265.489 7.86205 268.042 10.2727 269.719C12.6833 271.396 15.6547 272.064 18.5515 271.579C28.0225 270.027 37.4935 268.721 46.9645 267.5C49.1312 267.24 51.1745 266.353 52.8424 264.946C54.5103 263.54 55.7299 261.677 56.3506 259.586C57.4335 261.477 59.0462 263.009 60.99 263.995C62.9338 264.981 65.1237 265.376 67.2898 265.133C76.7608 264.149 86.3166 263.335 95.864 262.682C98.0313 262.528 100.108 261.754 101.847 260.451C103.585 259.149 104.911 257.373 105.666 255.336C106.661 257.274 108.189 258.887 110.069 259.987C111.95 261.087 114.105 261.627 116.283 261.545C125.83 261.13 135.386 260.807 144.857 260.697C147.026 260.658 149.138 259.998 150.944 258.796C152.749 257.593 154.171 255.898 155.041 253.911C155.912 255.896 157.335 257.59 159.14 258.793C160.944 259.995 163.056 260.656 165.225 260.697C174.78 260.782 184.328 261.104 193.799 261.545C195.979 261.643 198.141 261.109 200.024 260.008C201.908 258.906 203.433 257.284 204.415 255.336C205.169 257.372 206.493 259.148 208.23 260.45C209.967 261.753 212.043 262.528 214.209 262.682C223.765 263.335 233.236 264.149 242.792 265.133C244.956 265.359 247.139 264.955 249.079 263.971C251.02 262.987 252.635 261.465 253.731 259.586C254.363 261.67 255.586 263.527 257.252 264.931C258.917 266.336 260.955 267.228 263.117 267.5C272.588 268.721 282.059 270.044 291.53 271.579C294.427 272.064 297.398 271.396 299.809 269.719C302.219 268.042 303.878 265.489 304.429 262.605C306.064 253.304 307.697 243.999 309.326 234.691C310.514 228.737 306.11 222.944 299.66 221.883Z" fill="#0F0F3D"/>
<path fill-rule="evenodd" clip-rule="evenodd" d="M242.096 259.009C233.524 258.109 224.868 257.38 216.212 256.812C213.529 256.635 211.02 255.418 209.221 253.42C207.422 251.422 206.474 248.802 206.58 246.116C207.072 237.634 207.561 229.152 208.048 220.67C208.379 215.114 213.437 210.873 219.394 211.34C228.458 211.993 237.522 212.722 246.67 213.706C252.543 214.275 256.854 219.338 256.218 224.801C255.242 233.283 254.342 241.697 253.366 250.179C253.014 252.83 251.637 255.239 249.531 256.889C247.425 258.539 244.756 259.3 242.096 259.009Z" fill="#0F0F3D"/>
<path fill-rule="evenodd" clip-rule="evenodd" d="M93.8952 256.812C85.2474 257.465 76.676 258.194 68.0197 259.009C65.3465 259.296 62.6674 258.521 60.5605 256.852C58.4536 255.183 57.0879 252.752 56.758 250.085C55.7821 241.604 54.8825 233.189 53.8981 224.707C53.2446 219.236 57.5727 214.181 63.4539 213.604C72.5176 212.705 81.5812 211.908 90.7212 211.238C96.6024 210.831 101.754 215.072 102.076 220.568C102.563 229.05 103.052 237.532 103.544 246.014C103.673 248.719 102.733 251.365 100.929 253.385C99.1241 255.404 96.5984 256.635 93.8952 256.812Z" fill="#0F0F3D"/>
<path fill-rule="evenodd" clip-rule="evenodd" d="M143.304 254.683C134.648 254.768 125.994 255.014 117.344 255.421C114.648 255.56 112.007 254.634 109.99 252.842C107.973 251.05 106.743 248.536 106.566 245.845C106.073 237.363 105.581 228.881 105.174 220.399C104.851 214.852 109.417 210.119 115.358 209.873C124.421 209.465 133.561 209.219 142.625 209.024C148.566 208.948 153.403 213.435 153.403 218.982C153.403 227.464 153.403 236.04 153.488 244.522C153.468 247.213 152.388 249.789 150.482 251.691C148.576 253.592 145.997 254.667 143.304 254.683Z" fill="#0F0F3D"/>
<path fill-rule="evenodd" clip-rule="evenodd" d="M291.165 265.354C282.594 263.963 274.022 262.739 265.451 261.681C262.775 261.356 260.333 259.993 258.653 257.886C256.972 255.779 256.186 253.097 256.463 250.417L259.383 225.065C260.036 219.602 265.323 215.599 271.264 216.413C280.319 217.558 289.306 218.864 298.37 220.332C304.243 221.231 308.248 226.532 307.349 232.003C305.881 240.409 304.489 248.729 303.021 257.135C302.531 259.792 301.01 262.148 298.788 263.688C296.567 265.228 293.827 265.827 291.165 265.354Z" fill="#0F0F3D"/>
<path fill-rule="evenodd" clip-rule="evenodd" d="M44.6733 261.706C36.1018 262.837 27.5304 264.062 18.959 265.379C16.2923 265.838 13.5521 265.231 11.3294 263.688C9.10675 262.146 7.57977 259.792 7.07781 257.135C5.60964 248.729 4.21781 240.408 2.74963 232.003C1.76519 226.532 5.84724 221.23 11.7284 220.331C20.7072 218.864 29.7709 217.558 38.8345 216.413C44.7157 215.683 50.1047 219.602 50.7157 225.064C51.7001 233.546 52.6761 241.96 53.6521 250.442C53.9458 253.124 53.1668 255.813 51.4848 257.923C49.8028 260.034 47.3543 261.393 44.6733 261.706Z" fill="#090726"/>
<path fill-rule="evenodd" clip-rule="evenodd" d="M192.78 255.42C184.124 255.013 175.471 254.767 166.82 254.683C164.134 254.667 161.562 253.598 159.657 251.705C157.752 249.813 156.667 247.248 156.636 244.564C156.636 236.082 156.636 227.6 156.721 219.024C156.721 213.477 161.533 208.99 167.499 209.066C176.563 209.236 185.703 209.482 194.766 209.915C200.707 210.161 205.298 215.004 204.95 220.441C204.458 228.923 203.966 237.405 203.558 245.887C203.358 248.566 202.12 251.061 200.107 252.841C198.094 254.622 195.465 255.547 192.78 255.42Z" fill="#0F0F3D"/>
<path fill-rule="evenodd" clip-rule="evenodd" d="M142.651 212.086C133.672 212.255 124.608 212.501 115.629 212.824C113.672 212.866 111.811 213.678 110.45 215.083C109.088 216.489 108.336 218.374 108.356 220.33C108.764 228.736 109.256 237.226 109.663 245.632C109.807 247.532 110.684 249.302 112.109 250.569C113.534 251.835 115.396 252.498 117.301 252.417C125.949 252.01 134.529 251.764 143.177 251.68C145.099 251.664 146.939 250.894 148.299 249.536C149.66 248.178 150.432 246.341 150.45 244.419L150.28 219.041C150.28 215.122 146.885 211.941 142.693 211.941C142.735 212.086 142.735 212.086 142.651 212.086Z" fill="url(#paint0_linear_102_5898)"/>
<path fill-rule="evenodd" clip-rule="evenodd" d="M142.65 212.086C133.672 212.255 124.69 212.501 115.706 212.824C111.462 212.985 108.195 216.412 108.441 220.33C108.848 228.736 109.341 237.142 109.748 245.632C109.889 247.539 110.763 249.317 112.187 250.595C113.611 251.872 115.474 252.55 117.386 252.485C125.957 252.078 134.614 251.832 143.185 251.748C145.111 251.743 146.957 250.977 148.32 249.617C149.683 248.256 150.451 246.412 150.458 244.487C150.373 236.081 150.373 227.591 150.288 219.185C150.262 218.215 150.043 217.26 149.643 216.375C149.243 215.49 148.671 214.694 147.96 214.033C147.249 213.372 146.413 212.86 145.501 212.525C144.59 212.191 143.62 212.041 142.65 212.086ZM142.65 214.291C143.32 214.263 143.99 214.367 144.619 214.598C145.249 214.829 145.827 215.182 146.32 215.636C146.813 216.091 147.211 216.639 147.491 217.248C147.772 217.857 147.929 218.515 147.954 219.185C148.039 227.591 148.124 236.081 148.124 244.487C148.125 245.151 147.994 245.808 147.737 246.42C147.48 247.031 147.103 247.586 146.629 248.05C146.154 248.514 145.592 248.878 144.974 249.121C144.356 249.365 143.696 249.482 143.032 249.466C134.376 249.542 125.805 249.788 117.148 250.195C115.821 250.254 114.524 249.792 113.533 248.907C112.542 248.023 111.936 246.787 111.844 245.462C111.437 237.057 110.995 228.651 110.622 220.169C110.613 219.492 110.738 218.819 110.989 218.19C111.24 217.561 111.612 216.988 112.085 216.502C112.558 216.017 113.122 215.63 113.744 215.363C114.367 215.095 115.036 214.953 115.714 214.944C124.769 214.698 133.672 214.376 142.65 214.291Z" fill="white"/>
<path fill-rule="evenodd" clip-rule="evenodd" d="M90.891 214.215C81.9038 214.868 72.925 215.598 63.9462 216.497C59.7794 216.904 56.6733 220.492 57.0891 224.411C57.9378 232.816 58.9646 241.222 59.8642 249.628C60.1044 251.536 61.0866 253.274 62.5985 254.464C64.1104 255.655 66.0305 256.202 67.9434 255.989C76.5148 255.141 85.1711 254.36 93.7425 253.792C95.6693 253.681 97.4733 252.81 98.7587 251.371C100.044 249.932 100.706 248.042 100.6 246.116C100.116 237.71 99.5388 229.228 99.0551 220.823C98.8874 218.961 98.0168 217.233 96.6201 215.99C95.2234 214.747 93.4055 214.082 91.5359 214.13C91.3265 214.191 91.1091 214.22 90.891 214.215Z" fill="url(#paint1_linear_102_5898)"/>
<path fill-rule="evenodd" clip-rule="evenodd" d="M90.8061 214.215C81.8273 214.868 72.8401 215.598 63.8613 216.497C62.8897 216.562 61.9407 216.82 61.069 217.254C60.1974 217.688 59.4204 218.29 58.7829 219.026C58.1454 219.761 57.6599 220.616 57.3547 221.54C57.0494 222.464 56.9303 223.44 57.0042 224.411C57.9038 232.816 58.8797 241.222 59.7793 249.543C60.0195 251.452 61.0014 253.19 62.513 254.382C64.0247 255.574 65.9447 256.124 67.8585 255.913C76.4356 255.014 85.0098 254.278 93.5812 253.707C95.49 253.568 97.2706 252.695 98.5492 251.272C99.8278 249.848 100.505 247.985 100.438 246.073C99.9461 237.668 99.3775 229.262 98.8853 220.772C98.6392 217.006 95.0494 213.969 90.8061 214.215ZM90.9673 216.497C92.3202 216.361 93.6717 216.766 94.7273 217.622C95.7829 218.479 96.4569 219.718 96.6024 221.069C97.171 229.474 97.6632 237.88 98.2318 246.277C98.2926 247.605 97.8312 248.904 96.9463 249.896C96.0614 250.888 94.8231 251.495 93.4964 251.587C84.925 252.24 76.2686 252.969 67.6972 253.792C66.38 253.922 65.0638 253.534 64.0278 252.711C62.9917 251.888 62.3171 250.693 62.147 249.381L59.4568 224.249C59.3977 223.577 59.4744 222.9 59.6821 222.258C59.8898 221.616 60.2244 221.023 60.6661 220.512C61.1078 220.002 61.6475 219.586 62.2532 219.288C62.8589 218.99 63.5183 218.817 64.1923 218.778C73.0862 217.854 82.014 217.065 90.9673 216.497Z" fill="white"/>
<path fill-rule="evenodd" clip-rule="evenodd" d="M211.23 220.899C210.747 229.305 210.169 237.795 209.686 246.201C209.615 248.114 210.29 249.979 211.57 251.403C212.849 252.828 214.632 253.699 216.543 253.835C225.114 254.488 233.77 255.226 242.342 256.04C244.252 256.24 246.165 255.687 247.674 254.499C249.183 253.311 250.168 251.581 250.421 249.678C251.321 241.273 252.305 232.867 253.196 224.461C253.271 223.491 253.153 222.515 252.848 221.59C252.543 220.665 252.058 219.81 251.42 219.074C250.782 218.338 250.005 217.736 249.133 217.302C248.261 216.869 247.311 216.612 246.339 216.548C237.36 215.649 228.382 214.851 219.394 214.258H218.826C216.949 214.178 215.113 214.823 213.699 216.06C212.285 217.296 211.401 219.029 211.23 220.899Z" fill="url(#paint2_linear_102_5898)"/>
<path fill-rule="evenodd" clip-rule="evenodd" d="M246.263 216.582C237.275 215.683 228.297 214.885 219.318 214.292C218.345 214.19 217.362 214.284 216.426 214.566C215.49 214.849 214.62 215.316 213.867 215.939C213.114 216.563 212.493 217.33 212.04 218.196C211.587 219.062 211.312 220.01 211.23 220.984C210.746 229.39 210.169 237.795 209.686 246.277C209.606 248.197 210.277 250.072 211.557 251.505C212.837 252.938 214.626 253.816 216.543 253.954C225.114 254.522 233.686 255.336 242.257 256.159C244.172 256.372 246.094 255.824 247.608 254.632C249.121 253.439 250.104 251.7 250.345 249.789C251.244 241.383 252.22 232.978 253.12 224.657C253.209 223.675 253.102 222.685 252.804 221.745C252.507 220.805 252.024 219.933 251.386 219.182C250.748 218.43 249.966 217.813 249.086 217.366C248.206 216.92 247.247 216.653 246.263 216.582ZM246.017 218.779C246.688 218.824 247.344 219.002 247.946 219.302C248.549 219.602 249.086 220.018 249.526 220.527C249.967 221.036 250.302 221.627 250.512 222.266C250.722 222.905 250.804 223.579 250.752 224.25C249.852 232.655 248.953 241.061 248.053 249.382C247.883 250.694 247.209 251.888 246.173 252.711C245.136 253.535 243.82 253.922 242.503 253.792C233.932 252.893 225.275 252.155 216.704 251.587C216.044 251.55 215.397 251.384 214.802 251.097C214.206 250.81 213.673 250.408 213.233 249.915C212.793 249.421 212.455 248.846 212.238 248.222C212.021 247.598 211.929 246.937 211.968 246.277C212.537 237.88 213.029 229.475 213.598 221.069C213.662 220.397 213.86 219.744 214.179 219.149C214.499 218.554 214.933 218.029 215.457 217.603C215.982 217.178 216.586 216.861 217.234 216.671C217.882 216.481 218.562 216.422 219.233 216.497C228.135 217.065 237.114 217.854 246.017 218.779Z" fill="white"/>
<path fill-rule="evenodd" clip-rule="evenodd" d="M262.506 225.556C261.53 233.962 260.469 242.368 259.485 250.773C259.286 252.674 259.843 254.578 261.035 256.072C262.227 257.567 263.96 258.533 265.858 258.763C274.43 259.908 283.001 261.13 291.496 262.436C292.433 262.602 293.394 262.582 294.324 262.377C295.253 262.172 296.133 261.786 296.913 261.241C297.693 260.696 298.359 260.002 298.871 259.2C299.383 258.398 299.732 257.503 299.898 256.566L304.065 231.511C304.196 230.546 304.135 229.565 303.886 228.625C303.637 227.684 303.204 226.801 302.612 226.028C302.021 225.255 301.283 224.606 300.439 224.119C299.596 223.632 298.665 223.316 297.7 223.19C288.797 221.799 279.819 220.493 270.831 219.356C270.482 219.285 270.126 219.257 269.77 219.271C268.013 219.295 266.32 219.939 264.991 221.089C263.662 222.239 262.782 223.821 262.506 225.556Z" fill="url(#paint3_linear_102_5898)"/>
<path fill-rule="evenodd" clip-rule="evenodd" d="M297.776 223.265C288.882 221.882 279.895 220.576 271.001 219.431C269.054 219.136 267.069 219.622 265.479 220.783C263.889 221.945 262.824 223.688 262.514 225.631C261.538 234.037 260.478 242.366 259.493 250.772C259.308 252.692 259.877 254.608 261.081 256.116C262.285 257.623 264.029 258.602 265.943 258.847C274.514 259.907 283.009 261.213 291.581 262.52C293.481 262.825 295.426 262.384 297.008 261.288C298.59 260.192 299.686 258.527 300.067 256.642C301.448 248.318 302.834 239.994 304.226 231.671C304.364 230.694 304.306 229.7 304.055 228.746C303.804 227.792 303.366 226.898 302.766 226.115C302.165 225.333 301.415 224.677 300.558 224.188C299.701 223.699 298.755 223.385 297.776 223.265ZM297.453 225.47C300.313 225.962 302.35 228.49 301.858 231.187C300.477 239.505 299.091 247.829 297.7 256.158C297.453 257.458 296.71 258.61 295.629 259.372C294.547 260.133 293.21 260.444 291.903 260.238C283.323 258.847 274.752 257.626 266.265 256.565C264.946 256.408 263.741 255.736 262.915 254.695C262.088 253.655 261.706 252.33 261.852 251.01C262.913 242.612 263.898 234.283 264.958 225.877C265.061 225.211 265.296 224.572 265.648 223.996C266.001 223.421 266.464 222.922 267.011 222.527C267.559 222.133 268.179 221.851 268.836 221.698C269.493 221.545 270.174 221.524 270.84 221.636C279.657 222.782 288.551 224.088 297.453 225.487V225.47Z" fill="white"/>
<path fill-rule="evenodd" clip-rule="evenodd" d="M159.793 219.109C159.717 227.591 159.717 235.997 159.632 244.487C159.656 246.405 160.426 248.239 161.778 249.601C163.131 250.962 164.96 251.744 166.88 251.782C175.536 251.866 184.107 252.112 192.764 252.519C194.67 252.604 196.534 251.943 197.96 250.676C199.386 249.409 200.262 247.636 200.401 245.734C200.817 237.328 201.301 228.846 201.708 220.441C201.954 216.522 198.687 213.095 194.444 212.934C185.465 212.527 176.401 212.281 167.423 212.196H167.338C163.222 212.086 159.793 215.309 159.793 219.109Z" fill="url(#paint4_linear_102_5898)"/>
<path fill-rule="evenodd" clip-rule="evenodd" d="M194.495 212.823C185.516 212.416 176.534 212.17 167.55 212.086C166.581 212.048 165.615 212.202 164.706 212.539C163.798 212.876 162.965 213.389 162.255 214.049C161.545 214.709 160.973 215.502 160.571 216.383C160.169 217.265 159.945 218.217 159.912 219.185C159.827 227.591 159.827 236.081 159.751 244.487C159.783 246.402 160.559 248.23 161.915 249.585C163.27 250.939 165.099 251.715 167.015 251.747C175.587 251.832 184.243 252.078 192.814 252.485C194.734 252.578 196.612 251.91 198.042 250.627C199.472 249.344 200.338 247.549 200.452 245.632C200.868 237.226 201.352 228.821 201.759 220.33C202.005 216.411 198.738 212.985 194.495 212.823ZM194.418 215.029C195.785 215.047 197.089 215.606 198.044 216.584C198.999 217.562 199.526 218.879 199.51 220.245C199.103 228.651 198.662 237.057 198.288 245.547C198.197 246.873 197.589 248.111 196.597 248.995C195.604 249.88 194.304 250.341 192.976 250.28C184.328 249.873 175.748 249.627 167.1 249.542C165.75 249.542 164.454 249.006 163.5 248.051C162.545 247.097 162.008 245.803 162.008 244.453C162.093 236.047 162.169 227.557 162.169 219.151C162.184 218.477 162.335 217.813 162.612 217.199C162.89 216.584 163.289 216.032 163.784 215.575C164.28 215.118 164.864 214.766 165.499 214.539C166.134 214.313 166.809 214.217 167.482 214.257C176.452 214.376 185.431 214.698 194.418 215.029Z" fill="white"/>
<path fill-rule="evenodd" clip-rule="evenodd" d="M39.2077 219.431C30.2205 220.577 21.3266 221.883 12.3394 223.265C11.3735 223.393 10.4422 223.709 9.59902 224.197C8.75587 224.685 8.01742 225.335 7.42605 226.109C6.83469 226.883 6.40202 227.766 6.15292 228.707C5.90381 229.648 5.8432 230.63 5.97447 231.595C7.36627 239.915 8.74955 248.236 10.1413 256.642C10.3073 257.58 10.6565 258.476 11.169 259.279C11.6815 260.082 12.3472 260.776 13.1282 261.322C13.9092 261.868 14.7901 262.255 15.7206 262.46C16.6512 262.666 17.6131 262.686 18.5515 262.52C27.1229 261.129 35.6094 259.908 44.1808 258.847C45.125 258.741 46.0389 258.449 46.8703 257.99C47.7017 257.53 48.4342 256.911 49.0261 256.168C49.6181 255.425 50.0576 254.573 50.3199 253.66C50.5821 252.748 50.6617 251.792 50.5542 250.849L47.533 225.632C47.268 223.868 46.3648 222.263 44.9946 221.12C43.6245 219.977 41.8825 219.376 40.0988 219.431C39.8067 219.355 39.4998 219.355 39.2077 219.431Z" fill="url(#paint5_linear_102_5898)"/>
<path fill-rule="evenodd" clip-rule="evenodd" d="M39.1229 219.432C30.1442 220.577 21.2418 221.883 12.3394 223.266C11.3735 223.393 10.4422 223.71 9.59902 224.198C8.75587 224.686 8.01742 225.335 7.42606 226.109C6.83469 226.883 6.40202 227.766 6.15292 228.708C5.90381 229.649 5.8432 230.63 5.97447 231.595C7.36627 239.913 8.75521 248.237 10.1413 256.566C10.4965 258.465 11.5873 260.147 13.1765 261.246C14.7657 262.345 16.7249 262.773 18.6279 262.436C27.1144 261.053 35.6944 259.832 44.2658 258.763C46.1854 258.531 47.9369 257.554 49.1433 256.044C50.3496 254.534 50.9142 252.61 50.7155 250.688C49.7396 242.282 48.6788 233.962 47.6943 225.556C47.3637 223.611 46.277 221.876 44.6713 220.729C43.0656 219.581 41.0711 219.115 39.1229 219.432ZM39.4454 221.637C40.1108 221.525 40.7918 221.546 41.449 221.699C42.1062 221.852 42.7264 222.134 43.2737 222.528C43.8209 222.923 44.2842 223.422 44.6366 223.997C44.989 224.572 45.2236 225.212 45.3266 225.878C46.3874 234.284 47.3718 242.613 48.4327 251.01C48.5785 252.331 48.1967 253.656 47.3702 254.696C46.5437 255.737 45.3395 256.409 44.0196 256.566C35.4482 257.72 26.8514 258.933 18.3648 260.264C17.0555 260.486 15.7116 260.182 14.6258 259.418C13.5401 258.653 12.8006 257.491 12.5685 256.184C11.1824 247.855 9.79625 239.531 8.41011 231.213C8.31494 230.548 8.35405 229.87 8.52515 229.219C8.69625 228.569 8.99586 227.96 9.40634 227.427C9.81682 226.894 10.3299 226.449 10.9152 226.117C11.5006 225.786 12.1464 225.575 12.8146 225.497C21.5728 224.089 30.5515 222.782 39.4454 221.637Z" fill="white"/>
<path fill-rule="evenodd" clip-rule="evenodd" d="M214.404 170.228C213.912 178.633 213.343 187.124 212.851 195.521C212.605 199.44 215.872 202.866 220.116 203.197C229.264 203.85 238.319 204.664 247.468 205.564C251.711 205.971 255.471 203.197 255.954 199.278C256.803 190.873 257.83 182.467 258.729 174.061C259.137 170.143 255.869 166.555 251.456 166.063C241.985 165.088 232.438 164.273 222.967 163.62H222.314C218.096 163.62 214.659 166.47 214.404 170.228Z" fill="url(#paint6_linear_102_5898)"/>
<path fill-rule="evenodd" clip-rule="evenodd" d="M251.405 166.062C241.934 165.09 232.463 164.275 222.992 163.62C218.503 163.289 214.659 166.308 214.421 170.227C213.929 178.633 213.36 187.038 212.868 195.52C212.622 199.439 215.889 202.951 220.133 203.197C229.196 203.85 238.336 204.579 247.4 205.563C251.643 205.97 255.488 203.197 255.886 199.193C256.786 190.787 257.686 182.382 258.662 174.061C259.077 170.142 255.81 166.554 251.405 166.062ZM251.159 168.268C254.257 168.598 256.463 171.041 256.251 173.815C255.403 182.221 254.461 190.626 253.561 198.947C253.337 200.297 252.601 201.509 251.505 202.331C250.41 203.152 249.04 203.52 247.68 203.358C238.616 202.459 229.476 201.661 220.328 200.991C217.391 200.745 215.108 198.379 215.236 195.69C215.804 187.284 216.297 178.879 216.865 170.473C217.026 167.776 219.64 165.655 222.746 165.901C232.226 166.554 241.688 167.369 251.159 168.268Z" fill="white"/>
<path fill-rule="evenodd" clip-rule="evenodd" d="M160.09 168.353C160.005 176.835 160.005 185.24 159.929 193.731C159.929 197.65 163.324 200.907 167.567 200.991C176.707 201.153 185.855 201.399 194.919 201.84C199.162 202.001 202.837 198.981 202.998 195.054C203.406 186.648 203.898 178.158 204.305 169.752C204.551 165.842 201.038 162.407 196.667 162.246C187.111 161.839 177.64 161.593 168.093 161.398H167.923C163.714 161.33 160.09 164.519 160.09 168.353Z" fill="url(#paint7_linear_102_5898)"/>
<path fill-rule="evenodd" clip-rule="evenodd" d="M196.701 162.153C187.23 161.738 177.674 161.5 168.203 161.305C163.714 161.229 160.124 164.494 160.039 168.404L159.878 193.706C159.878 197.625 163.273 200.882 167.635 200.967C176.775 201.128 185.839 201.374 194.987 201.815C199.23 201.976 202.905 198.957 203.151 195.029C203.558 186.624 204.051 178.218 204.458 169.728C204.619 165.741 201.191 162.314 196.701 162.153ZM196.616 164.35C199.722 164.52 202.09 166.801 201.929 169.575C201.522 177.981 201.08 186.471 200.698 194.868C200.561 196.235 199.895 197.494 198.842 198.378C197.79 199.262 196.434 199.701 195.063 199.601C185.923 199.194 176.775 198.948 167.72 198.753C167.034 198.776 166.352 198.661 165.711 198.416C165.071 198.171 164.486 197.801 163.991 197.327C163.496 196.852 163.101 196.284 162.829 195.655C162.557 195.026 162.414 194.349 162.407 193.664C162.492 185.258 162.568 176.768 162.568 168.362C162.568 165.588 165.114 163.383 168.203 163.468C177.674 163.697 187.145 163.943 196.582 164.35H196.616Z" fill="white"/>
<path fill-rule="evenodd" clip-rule="evenodd" d="M141.997 161.329C132.441 161.499 122.97 161.737 113.423 162.178C109.01 162.339 105.505 165.766 105.785 169.684C106.201 178.09 106.685 186.572 107.092 194.978C107.338 198.896 110.936 201.916 115.18 201.763C124.32 201.347 133.468 201.11 142.532 200.915C146.775 200.839 150.17 197.658 150.17 193.654C150.093 185.172 150.093 176.767 150.008 168.276C150.008 164.358 146.419 161.177 142.006 161.177C142.082 161.329 141.997 161.329 141.997 161.329Z" fill="url(#paint8_linear_102_5898)"/>
<path fill-rule="evenodd" clip-rule="evenodd" d="M141.912 161.33C132.441 161.5 122.894 161.738 113.423 162.179C108.933 162.34 105.505 165.767 105.666 169.762C106.073 178.167 106.566 186.573 106.973 195.063C107.165 197.041 108.13 198.864 109.659 200.135C111.187 201.405 113.156 202.021 115.137 201.849C124.201 201.442 133.341 201.196 142.489 201.001C146.733 200.916 150.246 197.659 150.246 193.74L150.076 168.438C150.085 164.418 146.41 161.254 141.912 161.33ZM141.997 163.536C145.103 163.451 147.632 165.741 147.632 168.43C147.717 176.836 147.793 185.326 147.793 193.732C147.753 195.106 147.175 196.409 146.183 197.361C145.191 198.313 143.864 198.837 142.489 198.821C133.341 198.982 124.201 199.228 115.137 199.669C113.763 199.784 112.399 199.351 111.343 198.464C110.287 197.578 109.625 196.309 109.502 194.936C109.095 186.539 108.653 178.133 108.28 169.643C108.11 166.954 110.563 164.554 113.584 164.418C123.055 163.943 132.526 163.697 141.997 163.57V163.536Z" fill="white"/>
<path fill-rule="evenodd" clip-rule="evenodd" d="M87.2926 163.62C77.8216 164.273 68.2743 165.088 58.8033 166.063C54.3903 166.47 51.1654 170.143 51.5303 174.061C52.4299 182.467 53.4143 190.873 54.3054 199.278C54.7213 203.197 58.5487 205.971 62.792 205.564C71.8556 204.664 80.9956 203.867 90.0592 203.197C94.3025 202.866 97.5699 199.44 97.3322 195.521C96.84 187.124 96.2629 178.633 95.7792 170.228C95.5331 166.47 92.1045 163.62 87.9376 163.62H87.2926Z" fill="url(#paint9_linear_102_5898)"/>
<path fill-rule="evenodd" clip-rule="evenodd" d="M87.2164 163.62C77.7454 164.27 68.2744 165.084 58.8034 166.062C54.3904 166.469 51.0467 170.142 51.5305 174.061C52.43 182.467 53.3296 190.872 54.3055 199.193C54.7214 203.112 58.5488 205.979 62.7921 205.563C71.8557 204.664 80.9193 203.867 90.0593 203.197C94.3026 202.866 97.5699 199.439 97.3323 195.52C96.8401 187.115 96.263 178.717 95.7793 170.227C95.5416 166.308 91.7058 163.289 87.2164 163.62ZM87.3776 165.825C90.4752 165.579 93.0891 167.699 93.2588 170.388C93.8274 178.794 94.3196 187.199 94.8882 195.605C94.9088 196.981 94.3856 198.309 93.4323 199.302C92.4789 200.294 91.1724 200.871 89.7963 200.906C80.6563 201.559 71.5926 202.382 62.529 203.273C61.1653 203.467 59.7804 203.112 58.6779 202.287C57.5754 201.462 56.8453 200.233 56.6478 198.871C55.7992 190.465 54.8572 182.059 53.9576 173.739C53.6266 171.041 55.918 168.514 59.0495 168.191C68.4356 167.292 77.9066 166.554 87.3776 165.825Z" fill="white"/>
<path fill-rule="evenodd" clip-rule="evenodd" d="M75.7 200.745H75.8612C78.5961 200.673 81.2782 199.977 83.7028 198.71C85.8676 197.543 87.7595 195.93 89.253 193.977L84.8485 188.345C84.3563 188.837 83.864 189.405 83.2954 189.973C82.6615 190.576 81.9772 191.124 81.2501 191.61C80.4066 192.126 79.5032 192.536 78.5599 192.832C77.457 193.164 76.3163 193.355 75.1653 193.4C73.9119 193.396 72.6686 193.175 71.4906 192.747C70.4172 192.328 69.4431 191.689 68.6307 190.872C67.8229 190.053 67.1855 189.081 66.7552 188.014C66.2626 186.946 65.9747 185.795 65.9065 184.621C65.7926 183.369 65.9878 182.108 66.4751 180.949C66.8714 179.834 67.5122 178.823 68.3506 177.988C69.1513 177.175 70.0911 176.511 71.1257 176.029C72.1508 175.533 73.2582 175.228 74.3931 175.13C75.4844 175.019 76.5864 175.076 77.6604 175.299C79.3291 175.621 80.9127 176.285 82.311 177.25C82.8335 177.623 83.3272 178.034 83.7877 178.48L87.5387 172.543C85.8229 170.965 83.8287 169.72 81.6575 168.87C79.3147 167.996 76.8113 167.634 74.3167 167.81C72.0469 167.886 69.8194 168.444 67.782 169.447C65.8626 170.363 64.1347 171.635 62.6901 173.196C61.2752 174.789 60.1932 176.65 59.5076 178.667C58.7502 180.783 58.4437 183.033 58.6081 185.274C58.698 187.48 59.2259 189.645 60.1611 191.644C61.0176 193.578 62.2693 195.312 63.8358 196.734C65.3746 198.156 67.1763 199.266 69.1399 199.999C71.2739 200.59 73.4876 200.842 75.7 200.745Z" fill="#BB0020"/>
<path fill-rule="evenodd" clip-rule="evenodd" d="M120.119 178.955C120.558 177.889 121.163 176.899 121.909 176.02C122.677 175.183 123.592 174.493 124.608 173.985C125.678 173.497 126.829 173.21 128.003 173.136C129.168 173.108 130.326 173.331 131.397 173.79C132.444 174.251 133.388 174.917 134.172 175.749C134.965 176.581 135.6 177.549 136.048 178.607C136.538 179.671 136.79 180.829 136.786 182C136.823 183.204 136.6 184.402 136.133 185.512C135.693 186.579 135.086 187.57 134.334 188.446C133.569 189.323 132.63 190.03 131.577 190.522C130.523 191.014 129.378 191.281 128.215 191.305C127.049 191.338 125.89 191.115 124.82 190.652C123.78 190.17 122.817 189.538 121.96 188.777C121.127 187.978 120.486 187.001 120.085 185.919C119.591 184.814 119.339 183.617 119.346 182.407C119.464 181.23 119.724 180.071 120.119 178.955ZM122.24 197.565C124.26 198.39 126.423 198.805 128.605 198.786C130.79 198.817 132.949 198.313 134.894 197.319C136.814 196.438 138.544 195.19 139.986 193.646C141.436 192.082 142.571 190.253 143.329 188.26C144.125 186.205 144.514 184.016 144.475 181.814C144.48 179.617 144.005 177.446 143.083 175.452C142.233 173.54 141.043 171.799 139.57 170.312C138.098 168.851 136.35 167.697 134.427 166.919C132.409 166.087 130.245 165.668 128.062 165.689C125.889 165.685 123.742 166.16 121.773 167.08C119.852 167.959 118.122 169.207 116.681 170.753C115.271 172.301 114.163 174.099 113.414 176.054C112.627 178.084 112.238 180.247 112.269 182.424C112.264 184.621 112.739 186.792 113.66 188.786C114.492 190.731 115.681 192.503 117.165 194.011C118.549 195.583 120.289 196.802 122.24 197.565Z" fill="#BB0020"/>
<path fill-rule="evenodd" clip-rule="evenodd" d="M189.513 185.241C189.22 186.217 188.751 187.131 188.13 187.939C187.247 189.088 186.014 189.919 184.617 190.305C182.945 190.669 181.233 190.806 179.525 190.712H177.641L177.972 173.163H179.847C180.832 173.163 181.807 173.248 182.622 173.248C183.393 173.34 184.158 173.476 184.914 173.655C185.589 173.884 186.231 174.2 186.823 174.596C187.445 175.025 187.994 175.549 188.452 176.149C189.058 176.913 189.479 177.807 189.683 178.761C189.935 179.803 190.072 180.87 190.09 181.942C189.962 183.052 189.769 184.153 189.513 185.241ZM190.642 168.43C189.612 167.697 188.464 167.146 187.247 166.801C186.032 166.393 184.768 166.145 183.488 166.064C182.181 165.987 180.713 165.902 179.245 165.902L170.758 165.741L170.181 197.973L178.591 198.134C180.059 198.134 181.527 198.134 182.919 198.058C184.244 197.969 185.558 197.75 186.84 197.404C188.07 197.04 189.248 196.518 190.345 195.852C191.552 195.105 192.606 194.135 193.451 192.994C194.659 191.553 195.576 189.891 196.15 188.1C196.727 186.25 197.013 184.321 196.998 182.383C197.083 178.066 196.022 174.469 193.74 171.619C192.922 170.367 191.87 169.284 190.642 168.43Z" fill="#BB0020"/>
<path fill-rule="evenodd" clip-rule="evenodd" d="M223.239 199.685L245.524 201.645L246.093 194.859L231.157 193.561L231.649 188.175L246.263 189.473L246.831 182.789L232.056 181.483L232.625 175.198L247.646 176.504L248.223 169.566L225.929 167.606L223.239 199.685Z" fill="#BB0020"/>
<path fill-rule="evenodd" clip-rule="evenodd" d="M28.6762 249.382L25.2816 224.784L18.0171 225.683L22.4301 257.185L42.4329 254.412L36.7978 248.203L28.6762 249.382Z" fill="#BB0020"/>
<path fill-rule="evenodd" clip-rule="evenodd" d="M75.0466 244.402L74.5544 239.101L88.9815 237.795L88.4129 231.187L73.8754 232.409L73.3068 226.209L88.1668 224.902L87.5982 218.049L65.635 220.008L68.4356 251.663L90.3988 249.712L89.8217 243.02L75.0466 244.402Z" fill="#BB0020"/>
<path fill-rule="evenodd" clip-rule="evenodd" d="M125.915 236.735L130.243 225.148L135.055 236.574L125.915 236.735ZM127.222 215.106L114.263 247.1L122.105 246.93L123.488 243.266L137.856 243.02L139.332 246.608L146.97 246.447L132.933 214.868L127.222 215.106Z" fill="#BB0020"/>
<path fill-rule="evenodd" clip-rule="evenodd" d="M183.233 236.812L189.759 237.058C189.571 237.632 189.264 238.161 188.86 238.61C188.39 239.2 187.814 239.697 187.162 240.077C186.368 240.531 185.51 240.863 184.616 241.061C183.547 241.313 182.444 241.396 181.349 241.307C180.175 241.234 179.025 240.946 177.954 240.459C176.907 240.002 175.964 239.338 175.179 238.508C174.37 237.671 173.756 236.666 173.38 235.565C172.974 234.328 172.782 233.032 172.812 231.731C172.893 230.507 173.142 229.3 173.55 228.143C173.975 227.053 174.646 226.075 175.51 225.285C176.336 224.448 177.34 223.807 178.447 223.41C179.614 222.942 180.865 222.72 182.121 222.757C183.952 222.773 185.75 223.249 187.349 224.14C188.661 224.971 189.867 225.959 190.939 227.083L195.267 221.451C194.536 220.681 193.744 219.972 192.899 219.33C191.994 218.657 191.038 218.056 190.039 217.532C188.961 216.97 187.822 216.532 186.645 216.226C185.334 215.905 183.995 215.715 182.647 215.658C180.447 215.549 178.248 215.91 176.198 216.718C174.226 217.476 172.422 218.611 170.885 220.06C169.364 221.502 168.144 223.232 167.295 225.149C166.393 227.126 165.894 229.262 165.827 231.434C165.727 233.606 166.088 235.774 166.888 237.796C167.619 239.76 168.729 241.561 170.155 243.097C171.526 244.636 173.191 245.884 175.052 246.769C176.955 247.714 179.047 248.216 181.171 248.237H181.34C183.388 248.292 185.43 248.005 187.383 247.389C189.279 246.769 191.028 245.771 192.526 244.454C194.076 243.018 195.325 241.288 196.2 239.365C197.209 237.133 197.735 234.714 197.745 232.265L197.83 230.798L183.708 230.306L183.233 236.812Z" fill="#BB0020"/>
<path fill-rule="evenodd" clip-rule="evenodd" d="M237.114 232.977C237.038 233.384 237.038 233.876 236.953 234.445C236.868 235.013 236.792 235.59 236.707 236.141C236.622 236.692 236.546 237.278 236.461 237.837C236.376 238.397 236.3 238.813 236.215 239.22C236.003 240.823 235.183 242.284 233.923 243.3C232.656 244.238 231.073 244.646 229.51 244.436C228.726 244.398 227.958 244.197 227.256 243.846C226.553 243.496 225.931 243.004 225.428 242.401C224.408 241.138 223.912 239.532 224.045 237.914C224.045 237.422 224.045 236.769 224.121 235.785C224.198 234.801 224.368 233.588 224.537 231.875L225.836 219.304L218.571 218.566L217.264 231.383C217.169 232.003 217.115 232.629 217.103 233.257C217.007 233.906 216.953 234.561 216.942 235.217C216.857 235.87 216.857 236.438 216.781 237.015C216.714 237.501 216.686 237.992 216.696 238.482C216.674 240.232 216.961 241.972 217.544 243.622C218.137 245.151 219 246.562 220.09 247.787C221.19 248.96 222.492 249.925 223.935 250.637C225.438 251.395 227.07 251.866 228.747 252.028C230.467 252.211 232.207 252.099 233.889 251.697C235.445 251.289 236.912 250.599 238.218 249.661C239.528 248.688 240.638 247.469 241.485 246.073C242.402 244.566 243.038 242.905 243.36 241.171C243.445 240.687 243.53 240.195 243.607 239.542C243.683 238.889 243.768 238.236 243.853 237.498C243.938 236.76 244.014 236.116 244.099 235.463C244.188 234.867 244.241 234.266 244.26 233.664L245.567 221.425L238.302 220.695L237.114 232.977Z" fill="#BB0020"/>
<path fill-rule="evenodd" clip-rule="evenodd" d="M295.739 232.493L296.588 225.631L274.659 222.942L270.823 254.521L292.701 257.218L293.55 250.526L278.851 248.728L279.505 243.426L293.881 245.216L294.729 238.693L280.302 236.895L281.032 230.695L295.739 232.493Z" fill="#BB0020"/>
<path fill-rule="evenodd" clip-rule="evenodd" d="M112.931 152.925L94.2603 152.848L94.3452 129.26L113.016 129.345L112.931 152.925Z" fill="white"/>
<path fill-rule="evenodd" clip-rule="evenodd" d="M214.336 143.382C214.604 142.521 215.15 141.773 215.889 141.256C216.628 140.738 217.517 140.481 218.418 140.523C219.318 140.535 220.192 140.823 220.922 141.348C221.652 141.873 222.203 142.61 222.5 143.458L222.585 143.543H214.336V143.382ZM224.376 145.926C224.475 145.934 224.574 145.92 224.667 145.886C224.76 145.851 224.845 145.797 224.915 145.727C224.985 145.657 225.039 145.573 225.074 145.48C225.108 145.387 225.122 145.287 225.114 145.188V145.027C225.151 144.124 225.005 143.222 224.686 142.376C224.367 141.53 223.88 140.757 223.255 140.103C222.631 139.449 221.881 138.927 221.05 138.569C220.219 138.211 219.325 138.024 218.42 138.019C217.515 138.014 216.618 138.191 215.784 138.539C214.949 138.888 214.193 139.401 213.561 140.048C212.929 140.695 212.433 141.462 212.104 142.305C211.775 143.147 211.62 144.047 211.646 144.951C211.634 145.25 211.659 145.549 211.723 145.842V145.926C211.859 147.307 212.457 148.6 213.42 149.599C214.47 150.762 215.881 151.539 217.425 151.804H217.663C219.504 152.043 221.374 151.748 223.052 150.956C223.418 150.801 223.752 150.58 224.036 150.303L224.283 150.057L224.359 149.972C224.69 149.65 224.766 149.48 224.529 149.124C224.291 148.768 224.113 148.471 223.952 148.14C223.875 148.064 223.875 147.979 223.79 147.903L223.706 147.818C223.544 147.572 223.383 147.572 223.137 147.733L223.052 147.818C222.293 148.453 221.395 148.901 220.432 149.128C219.468 149.355 218.465 149.353 217.502 149.124C217.132 149.035 216.775 148.898 216.441 148.717C215.84 148.397 215.312 147.956 214.889 147.421C214.467 146.887 214.161 146.271 213.988 145.613V145.536H214.073L224.376 145.926Z" fill="#EE4E2B"/>
<path fill-rule="evenodd" clip-rule="evenodd" d="M198.577 143.298C198.847 142.438 199.394 141.692 200.132 141.175C200.87 140.658 201.758 140.4 202.659 140.439C203.563 140.448 204.443 140.735 205.178 141.262C205.913 141.789 206.468 142.529 206.766 143.382V143.459H198.526L198.577 143.298ZM208.54 145.842C208.638 145.85 208.737 145.836 208.829 145.802C208.922 145.768 209.006 145.715 209.076 145.646C209.146 145.577 209.2 145.493 209.235 145.401C209.27 145.309 209.285 145.211 209.278 145.113V144.909C209.33 143.997 209.195 143.084 208.882 142.225C208.569 141.366 208.085 140.58 207.459 139.914C206.833 139.248 206.078 138.716 205.24 138.351C204.402 137.985 203.499 137.794 202.585 137.788C201.67 137.782 200.765 137.962 199.922 138.317C199.08 138.672 198.318 139.195 197.684 139.853C197.049 140.511 196.555 141.291 196.232 142.145C195.908 143 195.762 143.911 195.802 144.824C195.788 145.126 195.817 145.429 195.887 145.723V145.8C196.019 147.181 196.618 148.476 197.584 149.472C198.631 150.635 200.039 151.412 201.581 151.678H201.827C203.668 151.958 205.551 151.662 207.216 150.83C207.584 150.683 207.917 150.46 208.192 150.176L208.464 149.998L208.549 149.914C208.871 149.591 208.956 149.43 208.71 149.065C208.464 148.701 208.302 148.412 208.141 148.09C208.056 148.005 208.056 147.929 207.98 147.844V147.759C207.81 147.513 207.649 147.513 207.488 147.683L207.403 147.759C206.643 148.394 205.746 148.842 204.783 149.069C203.819 149.296 202.816 149.295 201.853 149.065C201.481 148.981 201.124 148.844 200.792 148.658C200.191 148.339 199.663 147.9 199.241 147.367C198.819 146.834 198.512 146.22 198.339 145.562V145.477H198.424L208.54 145.842Z" fill="#EE4E2B"/>
<path fill-rule="evenodd" clip-rule="evenodd" d="M186.398 149.498C185.202 149.491 184.055 149.019 183.201 148.182C182.347 147.344 181.853 146.206 181.824 145.011V144.765C181.856 143.868 182.151 143.001 182.672 142.27C183.194 141.54 183.919 140.979 184.757 140.658C185.595 140.336 186.509 140.268 187.386 140.462C188.262 140.657 189.062 141.104 189.686 141.75C190.309 142.395 190.729 143.209 190.893 144.092C191.057 144.974 190.957 145.885 190.607 146.711C190.256 147.537 189.671 148.241 188.922 148.737C188.174 149.233 187.296 149.497 186.398 149.498ZM186.475 137.911C184.873 137.916 183.321 138.464 182.07 139.463L181.909 139.548V138.242C181.909 137.911 181.824 137.835 181.493 137.835H179.864C179.541 137.835 179.456 137.911 179.456 138.242L179.372 158.556C179.372 158.887 179.456 158.964 179.779 158.964H181.417C181.739 158.964 181.824 158.887 181.824 158.556V150.074L181.985 150.151C183.22 151.183 184.789 151.732 186.398 151.695C187.305 151.7 188.203 151.526 189.042 151.184C189.881 150.842 190.644 150.339 191.288 149.702C191.933 149.065 192.445 148.308 192.796 147.473C193.148 146.638 193.331 145.742 193.336 144.837C193.341 143.931 193.168 143.034 192.826 142.195C192.484 141.356 191.98 140.593 191.342 139.95C190.705 139.306 189.947 138.794 189.112 138.442C188.277 138.091 187.381 137.908 186.475 137.903V137.911Z" fill="#EE4E2B"/>
<path fill-rule="evenodd" clip-rule="evenodd" d="M169.918 149.498C169.016 149.481 168.14 149.199 167.399 148.686C166.658 148.173 166.085 147.453 165.752 146.616C165.419 145.779 165.341 144.862 165.527 143.98C165.714 143.099 166.157 142.292 166.801 141.662C167.445 141.031 168.261 140.605 169.146 140.436C170.032 140.267 170.947 140.364 171.778 140.714C172.609 141.063 173.318 141.65 173.815 142.401C174.313 143.152 174.578 144.034 174.577 144.935C174.575 145.541 174.452 146.141 174.216 146.7C173.98 147.259 173.635 147.765 173.202 148.19C172.768 148.614 172.255 148.948 171.691 149.173C171.127 149.398 170.524 149.508 169.918 149.498ZM170.002 137.912C168.628 137.935 167.291 138.363 166.159 139.142C165.027 139.922 164.151 141.017 163.639 142.292C163.127 143.567 163.003 144.965 163.283 146.31C163.562 147.655 164.232 148.888 165.209 149.854C166.187 150.82 167.427 151.476 168.776 151.741C170.125 152.006 171.522 151.867 172.792 151.342C174.062 150.816 175.148 149.928 175.916 148.789C176.683 147.649 177.097 146.308 177.106 144.935C177.106 144.006 176.922 143.086 176.564 142.229C176.206 141.372 175.681 140.595 175.021 139.941C174.36 139.288 173.576 138.772 172.715 138.424C171.854 138.076 170.932 137.901 170.002 137.912Z" fill="#EE4E2B"/>
<path fill-rule="evenodd" clip-rule="evenodd" d="M153.997 137.911C152.583 137.892 151.204 138.353 150.085 139.217L149.915 139.302V129.836C149.915 129.505 149.839 129.429 149.508 129.429H147.81C147.488 129.429 147.403 129.505 147.403 129.836L147.318 151.38C147.318 151.702 147.403 151.787 147.734 151.787H149.431C149.754 151.787 149.839 151.702 149.839 151.38V144.357C149.828 143.822 149.927 143.291 150.129 142.796C150.331 142.3 150.633 141.852 151.015 141.477C151.398 141.103 151.853 140.811 152.353 140.619C152.852 140.427 153.386 140.34 153.921 140.362C154.451 140.355 154.978 140.453 155.471 140.651C155.964 140.848 156.413 141.141 156.792 141.512C157.171 141.883 157.473 142.326 157.681 142.814C157.889 143.302 157.998 143.826 158.003 144.357V151.38C158.003 151.702 158.079 151.787 158.41 151.787H160.039C160.37 151.787 160.447 151.702 160.447 151.38V144.357C160.452 143.509 160.289 142.668 159.967 141.883C159.645 141.099 159.17 140.386 158.57 139.786C157.97 139.187 157.257 138.712 156.472 138.39C155.687 138.068 154.846 137.905 153.997 137.911Z" fill="#EE4E2B"/>
<path fill-rule="evenodd" clip-rule="evenodd" d="M130.566 147.869C130.46 148.079 130.323 148.27 130.158 148.438C129.997 148.684 129.997 148.845 130.243 149.091C130.882 149.651 131.596 150.119 132.365 150.482C133.986 151.297 135.778 151.716 137.593 151.703C138.909 151.744 140.219 151.495 141.428 150.974C142.401 150.562 143.247 149.899 143.878 149.052C144.509 148.205 144.903 147.205 145.018 146.156C145.426 142.644 143.058 140.439 137.177 138.649C134.402 137.75 133.095 136.605 133.095 134.892C133.095 133.178 134.894 131.711 137.177 131.626C138.995 131.594 140.777 132.138 142.269 133.178C142.591 133.424 142.761 133.34 143.007 133.017C143.007 132.932 143.083 132.856 143.414 132.449C143.527 132.242 143.664 132.048 143.822 131.872C143.983 131.55 143.983 131.389 143.652 131.143C143.056 130.763 142.428 130.434 141.776 130.159C140.291 129.588 138.717 129.283 137.126 129.26C133.536 129.345 130.752 131.626 130.591 134.646C130.515 136.851 131.576 138.565 133.943 139.871C135.299 140.467 136.687 140.986 138.102 141.423C141.284 142.322 142.922 144.035 142.591 146.071C142.269 147.869 140.393 149.091 137.694 149.175C135.65 149.09 133.683 148.376 132.059 147.131C131.998 147.125 131.941 147.098 131.898 147.055C131.813 146.97 131.813 146.97 131.737 146.97C131.406 146.724 131.168 146.724 130.999 147.055C130.94 147.364 130.789 147.648 130.566 147.869Z" fill="#EE4E2B"/>
<path fill-rule="evenodd" clip-rule="evenodd" d="M110.648 145.91C110.545 146.896 110.174 147.836 109.576 148.627C108.978 149.417 108.174 150.03 107.253 150.397C106.114 150.864 104.883 151.061 103.655 150.974C101.918 150.914 100.216 150.468 98.6731 149.668C97.9505 149.314 97.291 148.844 96.7212 148.277C96.5515 148.116 96.5515 148.031 96.6363 147.954C96.7212 147.878 96.7976 147.708 97.0437 147.378C97.1674 147.18 97.3034 146.99 97.4511 146.809C97.5359 146.648 97.6972 146.648 97.9433 146.724L98.0281 146.809C98.1045 146.886 98.1045 146.886 98.1894 146.886C99.7431 148.15 101.655 148.895 103.655 149.015C106.353 149.015 108.314 147.785 108.636 145.91C109.044 143.875 107.414 142.076 104.308 141.092C103.332 140.77 100.803 139.795 100.396 139.549C98.2657 138.319 97.2049 136.605 97.3747 134.57C97.6123 131.711 100.226 129.676 103.578 129.676C105.086 129.683 106.58 129.971 107.983 130.524C108.475 130.77 109.375 131.262 109.68 131.423C109.85 131.584 109.926 131.669 109.765 131.83C109.632 132.008 109.521 132.202 109.434 132.407C109.196 132.814 109.196 132.814 109.112 132.89C109.027 132.967 108.865 133.06 108.704 132.975C107.213 131.934 105.431 131.391 103.612 131.423C101.329 131.508 99.5302 132.814 99.4539 134.689C99.4539 136.385 100.676 137.623 103.451 138.522C108.933 140.524 111.055 142.645 110.648 145.91ZM103.858 116.859C107.457 116.859 110.469 120.252 110.554 124.612H97.0946C97.2898 120.312 100.192 116.859 103.867 116.859H103.858ZM117.573 156.598C118.506 156.558 119.393 156.181 120.069 155.537C120.745 154.892 121.164 154.024 121.247 153.094V152.848L122.648 125.401V125.324C122.648 125.099 122.558 124.884 122.399 124.725C122.24 124.566 122.024 124.476 121.799 124.476H113.058C112.897 118.853 108.815 114.298 103.833 114.298C98.8514 114.298 94.7693 118.785 94.4978 124.417H85.8245C85.5994 124.417 85.3836 124.506 85.2244 124.665C85.0653 124.824 84.9758 125.04 84.9758 125.265V125.35L86.1215 152.603V152.925C86.1603 153.824 86.527 154.677 87.1525 155.324C87.7779 155.971 88.6188 156.367 89.5162 156.436L117.276 156.521H117.513L117.573 156.598Z" fill="#EE4E2B"/>
<path fill-rule="evenodd" clip-rule="evenodd" d="M283.247 85.6035C282.101 89.6834 261.937 132.857 260.953 137.751C260.384 140.44 259.323 143.544 261.445 145.257C263.567 146.971 265.035 143.052 267.386 143.052C266.817 144.358 266.248 145.503 265.756 146.648C261.759 156.827 261.835 156.683 253.103 153.341C249.708 152.111 249.997 150.321 251.304 147.463C254.995 138.896 281.533 89.1999 283.247 85.6035Z" fill="#EE4E2B"/>
<path fill-rule="evenodd" clip-rule="evenodd" d="M32.0198 85.6035C33.1655 89.6834 53.3295 132.857 54.3054 137.751C54.8825 140.44 55.9434 143.544 53.8217 145.257C51.7001 146.971 50.2234 143.052 47.8811 143.052C48.4582 144.358 49.0268 145.503 49.519 146.648C53.5162 156.827 53.4398 156.683 62.1725 153.341C65.5162 152.111 65.2785 150.321 63.9716 147.463C60.1866 138.896 33.6407 89.1999 32.0198 85.6035Z" fill="#EE4E2B"/>
<defs>
<linearGradient id="paint0_linear_102_5898" x1="108.356" y1="232.162" x2="150.492" y2="232.162" gradientUnits="userSpaceOnUse">
<stop stop-color="white"/>
<stop offset="1" stop-color="#C8C8C8"/>
</linearGradient>
<linearGradient id="paint1_linear_102_5898" x1="26391.9" y1="-25397.3" x2="28625.2" y2="-25397.3" gradientUnits="userSpaceOnUse">
<stop stop-color="white"/>
<stop offset="1" stop-color="#C8C8C8"/>
</linearGradient>
<linearGradient id="paint2_linear_102_5898" x1="34361.3" y1="-25344.1" x2="36593.5" y2="-25344.1" gradientUnits="userSpaceOnUse">
<stop stop-color="white"/>
<stop offset="1" stop-color="#C8C8C8"/>
</linearGradient>
<linearGradient id="paint3_linear_102_5898" x1="37933" y1="-25934.6" x2="40293.8" y2="-25934.6" gradientUnits="userSpaceOnUse">
<stop stop-color="white"/>
<stop offset="1" stop-color="#C8C8C8"/>
</linearGradient>
<linearGradient id="paint4_linear_102_5898" x1="30696.2" y1="-24569" x2="32786.4" y2="-24569" gradientUnits="userSpaceOnUse">
<stop stop-color="white"/>
<stop offset="1" stop-color="#C8C8C8"/>
</linearGradient>
<linearGradient id="paint5_linear_102_5898" x1="24332.2" y1="-25916.1" x2="26693.4" y2="-25916.1" gradientUnits="userSpaceOnUse">
<stop stop-color="white"/>
<stop offset="1" stop-color="#C8C8C8"/>
</linearGradient>
<linearGradient id="paint6_linear_102_5898" x1="36410" y1="-27993.2" x2="38892.3" y2="-27993.2" gradientUnits="userSpaceOnUse">
<stop stop-color="white"/>
<stop offset="1" stop-color="#C8C8C8"/>
</linearGradient>
<linearGradient id="paint7_linear_102_5898" x1="32379.2" y1="-27109.6" x2="34706" y2="-27109.6" gradientUnits="userSpaceOnUse">
<stop stop-color="white"/>
<stop offset="1" stop-color="#C8C8C8"/>
</linearGradient>
<linearGradient id="paint8_linear_102_5898" x1="29496.6" y1="-27213.6" x2="31824" y2="-27213.6" gradientUnits="userSpaceOnUse">
<stop stop-color="white"/>
<stop offset="1" stop-color="#C8C8C8"/>
</linearGradient>
<linearGradient id="paint9_linear_102_5898" x1="27467" y1="-27993.2" x2="29943.8" y2="-27993.2" gradientUnits="userSpaceOnUse">
<stop stop-color="white"/>
<stop offset="1" stop-color="#C8C8C8"/>
</linearGradient>
</defs>
</svg>
